<svg xmlns="http://www.w3.org/2000/svg" width="256" height="256" viewBox="0 0 256 256"><title>penguin source pose 3</title><g id="source-pose-03" transform="scale(0.25)"><path id="tone-000" d="M701,189C697.31,181.61,677.32,174.99,670,171C607.87,137.1,554.32,139.87,486,146C482.46,150.07,462.65,154,457,154C445.23,155.96,424.92,163.39,415,170C411.36,173.88,407.82,174.98,404,179L403,179C398.62,179.78,396.43,183,392,183C386.96,184.68,379.82,190.18,376,194C363.68,206.76,348.92,217.4,336.71,230.62C324.77,243.54,316.17,259.83,304,272C301.72,274.79,296,283.81,296,287C295.62,289.43,272.33,350.67,272,351C271.03,355.72,269,362.32,269,367C269.6,397.95,264.28,435.26,273,465C275.41,469.33,276.03,474.41,278,479C278.33,479,278.67,479,279,479C281.72,481.72,283.07,489.93,285.09,493.64C287.92,498.82,294.41,505.58,294.82,511.6C295.21,517.33,268.64,544.54,263,549L262,550C259.52,557.89,246.19,572.03,240,578C235.07,582.46,230.95,590.1,228,596C227.47,598.72,227.59,599.71,225,601C224.42,606.26,216.5,621.5,212,623C213.25,627.49,200.43,654.72,197,657C189.96,670.08,179.33,703.33,180,718C180,736.99,181,756.05,181,775C182.88,791.31,202.39,816,220,816C225.8,816.16,252.86,812.35,256,815C258.13,816.79,261.81,826.4,263.97,829.36C266.43,832.72,272,837.66,272,842C277.76,842.33,285.74,851.59,290,856C295.08,855.72,299.08,858.18,304,859C305.06,862.4,306.02,865.02,308,868C305.1,872.53,303.44,887.22,309,890C309,891.33,309,892.67,309,894C312.02,899.62,323.58,907.85,330,909C343.78,910.08,356.2,914.06,371,912C371.33,912.67,371.67,913.33,372,914C378.5,911.83,407.26,915.48,416.75,915.25C424.07,915.07,436.31,912.4,443.93,911.12C453.48,909.51,470.23,901.53,478.01,894.73C480.59,892.46,480.86,888.44,483.6,886.98C488.54,884.36,539.41,886.92,546,889C555.14,893.1,557.97,899.97,568.2,903C579.72,906.4,591.92,905.96,603.71,907.03C608.28,907.44,612.08,910.55,615.81,910.95C637,913.21,663.69,907.45,683.8,904C690.26,902.89,702.34,902.94,708,899C717.58,892.33,717.91,882.09,725,875C725,872.38,724.69,870.49,724,868C722.56,865.84,722.75,865,720,865C720,862.67,720,860.33,720,858C716.98,856.49,711.09,848.09,708,845C695.66,845,700.41,830.85,705,825L705,824C707.09,820.1,707.91,815.9,710,812C715.68,812.77,720.35,815.23,726,816C726.33,817,726.67,818,727,819C751.82,819.86,766.03,808.03,779.44,788.83C781.84,785.39,780.63,781.97,785,778C795.37,757.26,787.41,694.77,776,675C774.67,675,773.33,675,772,675C772.64,662.37,766,660.34,763,650C762.14,647.02,763.75,644.02,762.12,640.7C759.28,634.91,753.22,628.12,752,622C751.33,622,750.67,622,750,622C747.45,610.1,736.44,599.89,731,589C725.17,589,717.17,574.94,729,571C740.83,571,751.02,556.96,762,555C762,553.24,773.06,541.65,775,539C800.26,506.53,815.12,495.18,825.5,453.77C826.14,451.24,827.71,450.81,830,450C830,448.19,834.42,444.72,835.64,442.77C840.54,434.95,841.65,426.55,846,419C846,417.88,846,417.88,845,411C840.48,406.48,840.33,399.37,835.6,394.16C829.69,387.66,821.09,385.09,816,380C815.33,380,814.67,380,814,380C811.03,371.09,808.72,365.12,809,355C805.47,324.39,786.64,295.23,774,268C772.43,268,771.97,266.98,770.99,265.85C767.67,262.05,742.87,229.61,742,227C738.63,225.31,701,189.21,701,189ZM525,169C550.33,168.86,575.85,174,600,174C607.59,173.79,623.92,176.35,628,183L629,183C637.79,184.01,645.41,188.21,653,192C657.78,196.05,678,202.67,678,209C679.66,209.51,689.03,212.99,690,214C696.7,221.01,740,262.68,740,269L740,271C744.15,272.61,765,306.7,765,312C771.06,318.06,772.04,328.57,777,336C777.33,335.33,777.67,334.67,778,334C781.71,335.85,783.35,347.94,782,352C781.33,351.33,780.67,350.67,780,350L780,354C781.74,357.23,782.89,360.51,784,364C784.33,364,784.67,364,785,364C786.65,362.35,786.58,362,789,362C790.31,368.81,789.91,369.18,787,375C787,377,787,379,787,381C786.33,381,785.67,381,785,381C781.94,383.62,781.27,384,777,384C759.36,388.75,757.09,401.44,751,403C751,405.33,751,407.67,751,410C750.67,410,750.33,410,750,410C749.82,419.66,753,428.67,753,437L755,443C759.58,443.72,771.76,449.76,775,453C778,453,781,453,784,453C784.33,453.67,784.67,454.33,785,455C790.36,454.88,794.8,455.99,800,457C800.84,460.38,801.11,462.67,800,466C799.33,466,798.67,466,798,466L797,473L797,473C798,473,799,473,800,473C794.4,479.82,792.36,484.64,786,491C785.67,490.67,785.33,490.33,785,490C784.67,491.33,784.33,492.67,784,494C784.67,494,785.33,494,786,494C783.54,499.1,777.58,509.1,773,512C773,511.67,773,511.33,773,511L770,512L769,513C768.21,523.7,747.18,534.82,740,542C738.67,543.33,737.33,544.67,736,546C735,545.33,734,544.67,733,544L733,544L731,544C725.75,545.75,719.71,558,716,558C714.33,558.67,712.67,559.33,711,560C709.42,558.42,707.18,558.94,705,559C702.33,560.33,699.67,561.67,697,563C698.67,563,700.33,563,702,563C702,563.67,702,564.33,702,565C696.08,567.18,682.23,573.16,679,578C683.12,584.18,694.15,582.08,701,582C701.67,583.33,702.33,584.67,703,586C704.16,589.49,706.25,591.26,707,595C712.31,600.31,716.46,616.23,722,619C725.57,622.57,731,628.72,731,634C733.4,641.2,735.65,647.3,739,654C743,658,743,658,743,661C749.54,664.27,754.3,687.93,754,695L754,699C757.11,700.55,756.64,703.69,757,707C757.33,707,757.67,707,758,707C765.05,718.45,763.16,742.58,763,756C762.67,756,762.33,756,762,756C761.67,758.67,761.33,761.33,761,764C760.67,764,760.33,764,760,764C760,766.67,760,769.33,760,772C754.31,774.84,753.39,786.8,743,792C743,798.01,731.15,796.31,727.13,795.53C723.01,794.73,716.45,793.03,714.34,789.16C712.53,785.85,716.05,740.34,716,732L716,729C715.67,729,715.33,729,715,729C715.12,722.64,712.11,680.56,709,679C709.45,669.05,704.07,656.63,703,646C699.37,646,695.58,647.3,692,648C691.89,655.86,691.77,665.46,694,673C694.07,666.37,692.12,654.84,694,649C694.67,649.33,695.33,649.67,696,650C695.77,668.92,701.07,687.45,701.75,705.64C702.89,735.69,701.85,761.48,696.09,790.79C693.34,804.76,693.87,815.13,683,826C682.67,825.67,682.33,825.33,682,825C681.33,825.67,680.67,826.33,680,827C679.67,826.67,679.33,826.33,679,826C680.66,822.45,683,820.98,683,817C681.08,818.92,680.43,820.79,678,822C677.25,826.75,677.25,826.75,675,829C675,829.33,675,829.67,675,830C667.15,830.13,659.07,829.93,652,826C641.78,826.16,629.83,822.96,620,826C620.33,826.33,620.67,826.67,621,827C615.84,826.88,611.13,828.14,606,828C606,828.67,606,829.33,606,830C607,830.33,608,830.67,609,831C605.32,832.01,585.73,837.73,584,836C584.33,835,584.67,834,585,833C579.64,834.79,573.05,841,568,841C561.64,848.73,556.11,857.12,549,864C546.45,869.09,487.94,870.44,482,867C479.68,865.66,479.36,862.3,479,860C479,851.73,466.96,844.77,462,838L460,838C455.98,838.34,454.02,837.69,451,835C449.67,834.67,448.33,834.33,447,834C446.67,834.67,446.33,835.33,446,836C449.89,837.41,453.05,839.05,456,842C453.02,842,433.49,832.98,432,830C428.22,830.11,422.82,830.64,421,827C426.6,827.65,432.39,829.16,438,829C438,828.67,438,828.33,438,828C436.33,827.67,434.67,827.33,433,827C418.81,827,405.03,823.79,390,824C386.41,823.92,372.22,824.78,370,827C372.67,827,375.33,827,378,827C376.84,830.47,340.2,844,335,844C338.06,840.73,341.58,839.63,344,836L342,836L340,836L336,840C326,850,329.46,847.63,317.95,842.41C314.15,840.69,310.85,840.49,308,837C306.67,837,305.33,837,304,837C302.96,833.89,303.11,834.04,300,833C294.95,833,285.79,820.85,284,816C281.5,816,279.98,812.14,279.79,810.04C279.11,802.63,299.44,787.28,306,784C306,780.19,324.84,765.29,329,762C331.7,756.6,356.27,719.73,360,716C362.02,712.98,362.89,711.07,366,709C370.12,700.77,370.73,694.02,378,687L378,683C378,679.03,383.56,657.72,385,657C385.07,650.21,385.86,642.57,384,636C382.2,640.21,375.24,653.21,372,656C370.29,659.67,366.53,668.47,364,671C362.92,678.78,356.27,685.95,353,693C352.67,693,352.33,693,352,693C350.95,694.05,350,694.45,350,696C347.99,710.88,305.43,760.3,291,767C288.56,773.3,275.37,782.04,268,783C260.06,791.79,242.12,793.27,231,793C231,792.67,231,792.33,231,792C225.69,790.27,220.13,789.81,218,784C199.54,775.66,201.37,744.03,206,727C205.83,720.91,206.45,713.55,211,709L211,708C210.77,701.86,213.26,698.92,213,693C213.88,685.4,217.45,673.55,223,668C224,667,225,666,226,665C226,656.61,229.69,648.51,235,642L235,640C237.47,635.41,242.34,627.29,242,623C243,622.67,244,622.33,245,622C245.84,615.98,250.58,609.13,255,605C262.71,599.86,261.85,589.15,268,583C271.34,576.32,290.14,552.95,296,551C301.26,545.74,331.74,519.97,330.85,515.02C329.79,509.14,322.22,505.71,321,498C320.67,498,320.33,498,320,498C315.77,488.89,307.21,482.63,306,472C292.68,452.01,288.06,370.56,301,349C301,345.36,302.39,341.61,305,339C305,328.72,322.41,291.59,330,284C330,277.72,365.15,235.95,371,234C374.58,226.84,396.75,210.75,405,208C407,207.33,409,206.67,411,206C420.86,196.14,431.94,188.74,447,187C456.99,174.91,509.01,168.81,525,169ZM403,179L404,179L403,179ZM774,397C777.88,396.5,811,388.04,811,401L811,403C823.93,407.31,823.81,430,817,430C811.73,445.82,791.99,445.24,778,445C775.87,444.51,773.61,443.39,772,445C767.93,443.64,767.95,442.06,767,438L763,434C755.15,430.86,755.16,420.58,759,414C759,407.96,768.26,398.64,774,397ZM378,835L378,835ZM378,835C374.43,838.57,369.84,839.28,365,839C364.67,840,364.33,841,364,842C361.33,842,358.67,842,356,842C356,843,356,844,356,845C353.67,845,351.33,845,349,845C354.29,839.71,370.66,833.33,378,835ZM624,836C635.7,832.25,643.26,836.91,654,839C654,839.33,654,839.67,654,840C661.96,839.6,668.34,842.34,674,848L676,851C678,851.67,680,852.33,682,853C682,853.67,682,854.33,682,855C687.76,855.74,688.16,857.81,693,860C700.67,862.56,702.92,868.32,701,876C700,876,699,876,698,876C695.61,877.89,693.93,879.02,691,880L691,881L690,883C681.76,887.44,623.19,893,613,890C603.35,890.1,591.71,891.73,583,887C581.88,885.88,581.88,885.88,578,884C553.42,882.75,567.03,858.95,578.88,850.38C583.86,846.79,591.45,844.88,597,842C594.33,842,591.67,842,589,842C592.09,838.23,604.55,833.52,609,835C608.33,835.67,607.67,836.33,607,837C608,837.33,609,837.67,610,838C604.5,837.54,603.44,839.78,599,842L605,841C609.17,838.22,618.96,835.72,624,836ZM386,837C395.04,831.44,418.14,834,429,834C425.93,834.91,423.2,835.09,420,835C422.56,837.56,425.9,836.9,428,839C434.16,841.64,447.03,844.06,450,850L453,853C463.2,856.4,471.44,874.01,462.5,882.45C457.62,887.06,447.5,889.83,441,892C443.33,892,445.67,892,448,892C443.82,894.24,440.78,893.84,438,898C437,897,437,897,436,895C421.89,895.22,411.96,893.35,398,898C398.33,898.67,398.67,899.33,399,900C401,899.67,403,899.33,405,899C401.91,902.09,398.09,902.09,395,899C392.22,901.78,390.59,900.78,387,900C387,899,387,898,387,897C391.33,897.08,397.77,898.23,401,895C392.15,895,350.99,896.99,346,892C346,891.67,346,891.33,346,891C342.78,890.49,341.36,890.36,339,888C337.02,888,330.64,881.92,330,880C328.67,880,327.33,880,326,880C324.49,858.39,345.38,846.96,364,844C372.15,840.19,377.36,839.42,386,837ZM547,869C539.41,876.59,507.49,874.27,497,872C497,871.01,497,870.02,497,869C513.67,869,530.33,869,547,869ZM686,888C679.43,888.71,678.63,892.43,672,892C671.67,892.66,671.34,893.32,671,894C666.34,893.59,664.89,893.58,663,889C668.78,889.12,682.04,886.68,686,888Z M681,397C675.85,394.43,678.47,388.92,670,388C670,389.87,670.19,390.37,671,392C670,392,670,392,667,390C667.33,389.67,667.67,389.33,668,389C661.33,382.33,655.04,377.96,647,386C644.06,389.67,642.5,394.5,641,399L640,400C639.41,403.02,638.77,406.02,638,409L638,409C638.64,410.29,636.93,429.16,637,433C632.14,423.27,632.8,417.65,633,407C627.82,415.68,633,425.78,633,435C638.91,440.91,638.57,447.86,648,451C655.54,453.16,667.13,452.87,673,447C670.75,448.13,670.75,448.13,666,449C666.36,444.11,677.32,432.98,680,427C681.71,428.71,679.5,434.44,679,437C685.86,437,683.76,405.99,681,401L681,397ZM681,401C682.12,408.94,679.67,413.66,680,421C678.27,415.57,680.09,410.34,678.99,405.1C678.2,401.37,675.6,399.3,675,395C678.74,396.25,678.8,397.39,680,401C680.33,401,680.67,401,681,401Z" fill="#270F04" stroke="#270F04" stroke-width="1.2" stroke-linejoin="round"/>
<path id="tone-001" d="M457,154C462.65,154,482.46,150.07,486,146C476.72,147.48,465.15,149.47,457,154Z M492,175C492,174.67,492,174.33,492,174C501.96,172.38,515.82,171.94,525,169C509.01,168.81,456.99,174.91,447,187C452.42,187,460.84,181.84,467,181C475.69,178.1,482.6,174.69,492,175Z M628,183C623.92,176.35,607.59,173.79,600,174C606.15,177.53,620.52,180.62,628,183Z M653,192C645.41,188.21,637.79,184.01,629,183C632.13,184.74,646.21,192,649,192L653,192Z M742,227C731.5,216.5,715.39,193.8,701,189C701,189.21,738.63,225.31,742,227Z M304,272C316.17,259.83,324.77,243.54,336.71,230.62C348.92,217.4,363.68,206.76,376,194C354.79,201.07,314.02,251.96,304,272Z M371,234C379.29,229.85,398.99,214.66,405,208C396.75,210.75,374.58,226.84,371,234Z M351,258C351,253.14,367.92,239.7,371,234C365.15,235.95,330,277.72,330,284L333,282C336.92,273.59,343.73,263.72,351,258Z M272,351C272.33,350.67,295.62,289.43,296,287C285.35,300.07,272,334.12,272,351Z M777,336C772.04,328.57,771.06,318.06,765,312C766.29,319.73,769.76,325.29,772,332C774.78,333.39,774.98,335.16,776,338C776.33,338,776.67,338,777,338L777,336Z M299,375C298.87,366,300.2,357.9,301,349C288.06,370.56,292.68,452.01,306,472L305,464C296.6,447.2,288.65,391.18,299,375Z M785,364C784.67,364,784.33,364,784,364C782.89,360.51,781.74,357.23,780,354L780,358C781.99,361.7,784,365.74,784,370C785.66,372.7,787.47,378.53,785,381C785.67,381,786.33,381,787,381C787,379,787,377,787,375C787,371.53,785.69,367.45,785,364Z M814,372C814,369.35,810.53,357.44,809,355C808.72,365.12,811.03,371.09,814,380C814.67,380,815.33,380,816,380C816,377.8,813.8,375.73,814,372Z M273,465C264.28,435.26,269.6,397.95,269,367C263.66,386.46,263.3,447.6,272,465L273,465Z M263,549C268.64,544.54,295.21,517.33,294.82,511.6C294.41,505.58,287.92,498.82,285.09,493.64C283.07,489.93,281.72,481.72,279,479C278.92,482.04,279.02,484.07,280,487C283.02,495.37,291.21,503.83,292.84,512.07C293,512.82,266.19,542.14,263,549Z M750,410C750.33,410,750.67,410,751,410C751,407.67,751,405.33,751,403C757.09,401.44,759.36,388.75,777,384C764.44,382.68,749.24,396.9,750,410Z M845,429C846.13,426.75,846.13,426.75,846,419C841.65,426.55,840.54,434.95,835.64,442.77C834.42,444.72,830,448.19,830,450C838,442,839.69,438.85,845,429Z M798,466C798.67,466,799.33,466,800,466C801.11,462.67,800.84,460.38,800,457C794.8,455.99,790.36,454.88,785,455C784.67,454.33,784.33,453.67,784,453C781,453,778,453,775,453C782.83,454.81,791.4,455.88,799,458C799,460,799,462,799,464C798.67,464,798.33,464,798,464L798,466Z M797,473L798,466C792.55,471.45,791.22,480.37,785,486L785,490C785.33,490.33,785.67,490.67,786,491C792.36,484.64,794.4,479.82,800,473C799,473,798,473,797,473ZM797,473L797,473Z M740,542C738,543,738,543,735,544C737.86,539.91,741.54,537.45,744,533C742.28,533.57,739.18,536,738,536C736.28,540.31,732.75,540.5,731,544L733,544C734,544.67,735,545.33,736,546C737.33,544.67,738.67,543.33,740,542ZM733,544L733,544Z M240,578C246.19,572.03,259.52,557.89,262,550C253.87,557.83,245.06,567.88,240,578Z M268,783C275.37,782.04,288.56,773.3,291,767C285.07,768.98,281.26,774.91,275,777C272.64,779.53,271.34,780.89,268,782C268,782.33,268,782.67,268,783Z M268,583C276.45,576.61,290.64,560.25,296,551C290.14,552.95,271.34,576.32,268,583Z M716,558C716.67,557,717.33,556,718,555C716.67,554.67,715.33,554.33,714,554C711.67,554.78,709.39,555.42,707,556L705,559C707.18,558.94,709.42,558.42,711,560C712.67,559.33,714.33,558.67,716,558Z M679,578L677,578C677.67,579.67,678.33,581.33,679,583C685.69,582.83,698.58,580.52,703,586C702.33,584.67,701.67,583.33,701,582C694.15,582.08,683.12,584.18,679,578Z M225,601C227.59,599.71,227.47,598.72,228,596C225,599.88,225,599.88,225,601C220.43,605.57,214.04,616.89,212,623C216.5,621.5,224.42,606.26,225,601Z M197,657C200.43,654.72,213.25,627.49,212,623C207.4,628.43,197,650.24,197,657Z M382,674C382,670.43,384.18,666.57,384,662C384.67,661.67,385.33,661.33,386,661C385.82,651.62,387.11,642.48,387,633C385.33,633.33,383.67,633.67,382,634C381.03,639.6,374.12,649.5,372,656C375.24,653.21,382.2,640.21,384,636C385.86,642.57,385.07,650.21,385,657C383.56,657.72,378,679.03,378,683C379.73,683,381.12,679.54,382,678L382,674Z M223,672L223,668C217.45,673.55,213.88,685.4,213,693C218.43,687.57,217.26,677.74,223,672Z M352,693C352.33,693,352.67,693,353,693C356.27,685.95,362.92,678.78,364,671C361.09,673.91,357.86,679.27,356,683C354.86,686.43,353.15,689.56,352,693Z M762,756C762.33,756,762.67,756,763,756C763.16,742.58,765.05,718.45,758,707C757.73,723.16,762.14,739.13,762,756Z M181,775C181,756.05,180,736.99,180,718C174.99,736.57,177.04,756.41,180,775C180.33,775,180.67,775,181,775Z M683,816C683.33,816,683.67,816,684,816C689.94,799.89,696.51,787,696,769C693.88,775.88,695.03,784.95,691,791C689.62,799.27,685.62,807.96,683,816Z" fill="#2F180D" stroke="#2F180D" stroke-width="1.2" stroke-linejoin="round"/>
<path id="tone-002" d="M600,174C575.85,174,550.33,168.86,525,169C515.82,171.94,501.96,172.38,492,174C492,174.33,492,174.67,492,175C499.14,175,505.85,172.07,512.91,171.88C533.2,171.34,553.69,171.94,574,172C574.33,172.67,574.67,173.33,575,174L576,174C589.1,173.78,603.55,176.28,615,182L616,182C625.96,183.66,653.81,193.44,660,201L664,201C659.54,196.54,653.69,195.97,649,192C646.21,192,632.13,184.74,629,183L628,183C620.52,180.62,606.15,177.53,600,174Z M475,181C480.41,178.29,486.68,178.08,492,175C482.6,174.69,475.69,178.1,467,181L475,181Z M460,185C462.93,184.02,464.61,182.89,467,181C460.84,181.84,452.42,187,447,187C440.05,190.74,430.58,191.13,426,198C428.25,196.88,428.25,196.88,433,196C438.62,190.38,452.16,185.9,460,185Z M408,210L411,206C409,206.67,407,207.33,405,208C398.99,214.66,379.29,229.85,371,234C367.92,239.7,351,253.14,351,258C352.89,258,356.32,252.86,357.62,251.21C367.98,238.11,391.46,215.18,407,210L408,210Z M696,732L695,732C695,741.33,695,750.67,695,760C694.33,760,693.67,760,693,760C693.15,768.51,691,777.54,691,785L691,791C695.03,784.95,693.88,775.88,696,769C695.67,757.16,699.5,743.78,696,732Z M346,266C346,264.39,350.17,260.48,351,258C343.73,263.72,336.92,273.59,333,282L339,277C339.29,270.78,341.11,269.54,346,266Z M765,312L762,310C763.81,315.42,765.23,317.98,765,324C766.99,325.99,770,329.36,770,332L772,332C769.76,325.29,766.29,319.73,765,312Z M785,381C787.47,378.53,785.66,372.7,784,370C784.97,376.39,787.03,380.39,779,382C775.35,383.1,768.67,381.54,766,383C757.87,387.46,748.54,400.87,749,410L750,410C749.24,396.9,764.44,382.68,777,384C781.27,384,781.94,383.62,785,381Z M301,444C290.64,425.89,299.64,394.34,299,375C288.65,391.18,296.6,447.2,305,464C304.04,456.96,301.53,451.35,301,444Z M681,393C677.58,391.29,676.81,387.91,674,386C666.22,380.7,657.95,380.78,649,381C648.67,382,648.33,383,648,384C644.65,384.6,637,390.59,637,394C641.08,391.96,642.26,387.58,647,386C655.04,377.96,661.33,382.33,668,389C667.67,389.33,667.33,389.67,667,390C670,392,670,392,671,392C670.19,390.37,670,389.87,670,388C678.47,388.92,675.85,394.43,681,397L681,393Z M732,587C732,584.62,727.77,582.12,728,579C728.33,574.39,756.71,559.11,762,555C751.02,556.96,740.83,571,729,571C721.75,577.55,723.87,579.87,730,586L732,587Z M743,661C743,658,743,658,739,654L739,658C739.87,663.2,742.4,667.98,744,673C744.33,673,744.67,673,745,673C745.21,668.53,744.59,665.18,743,661Z M211,708C211.33,708,211.67,708,212,708C214.03,695.81,221,683.97,223,672C217.26,677.74,218.43,687.57,213,693C213.26,698.92,210.77,701.86,211,708Z M357,725C358.65,722.03,359.44,719.34,360,716C356.27,719.73,331.7,756.6,329,762C327.02,767.94,311.69,781.15,306,784C303.45,790.72,290.5,797.5,285,803C295.22,803,311.41,777.53,322,774C325.43,770.57,326.53,767.5,331,764C331,759.93,341.28,745.86,345,744C346.95,738.6,349.26,735.27,354,732C356.25,729.75,356.25,729.75,357,725Z M220,784L218,784C220.13,789.81,225.69,790.27,231,792C235.15,792.07,239.02,792.33,243,791C236.48,791.13,230.85,791.25,225,788C222,786,222,786,220,784Z M315,839C312.75,837.88,312.75,837.88,308,837C310.85,840.49,314.15,840.69,317.95,842.41C329.46,847.63,326,850,336,840C327.29,840,331.09,851.76,315,839Z" fill="#402B22" stroke="#402B22" stroke-width="1.2" stroke-linejoin="round"/>
<path id="tone-003" d="M404,179C407.82,174.98,411.36,173.88,415,170C411.6,170.47,392,180.36,392,183C396.43,183,398.62,179.78,403,179L404,179ZM403,179L404,179L403,179Z M776,443C776,442.67,776,442.33,776,442C772.92,440.8,769.94,439.52,767,438C767.95,442.06,767.93,443.64,772,445C773.61,443.39,775.87,444.51,778,445L776,443Z M730,586C723.87,579.87,721.75,577.55,729,571C717.17,574.94,725.17,589,731,589L730,586Z M754,695C754.3,687.93,749.54,664.27,743,661C744.59,665.18,745.21,668.53,745,673C750.49,676.66,752.1,688.4,753,695C753.33,695,753.67,695,754,695Z M716,787C711.31,771.61,721.51,749.03,716,732C716.05,740.34,712.53,785.85,714.34,789.16C716.45,793.03,723.01,794.73,727.13,795.53C731.15,796.31,743,798.01,743,792C735.43,794.45,719.9,794.81,716,787Z M306,784C311.69,781.15,327.02,767.94,329,762C324.84,765.29,306,780.19,306,784Z M723,820C751.36,820.29,781.19,811.02,785,778C780.63,781.97,781.84,785.39,779.44,788.83C766.03,808.03,751.82,819.86,727,819C726.67,818,726.33,817,726,816C720.35,815.23,715.68,812.77,710,812C707.91,815.9,707.09,820.1,705,824C710.9,818.63,713.71,810.71,723,820Z M708,845C697,834,703.39,836.91,705,825C700.41,830.85,695.66,845,708,845Z M290,856C285.74,851.59,277.76,842.33,272,842C274.44,845.07,284.27,856,288,856L290,856Z M309,894C309,892.67,309,891.33,309,890C303.44,887.22,305.1,872.53,308,868C306.02,865.02,305.06,862.4,304,859C299.08,858.18,295.08,855.72,290,856C293.54,859.54,300.43,861.71,305,864C305.11,870.77,303.89,877.2,304,884C304.6,888.31,305.93,890.93,309,894Z M546,889C539.41,886.92,488.54,884.36,483.6,886.98C480.86,888.44,480.59,892.46,478.01,894.73C470.23,901.53,453.48,909.51,443.93,911.12C436.31,912.4,424.07,915.07,416.75,915.25C407.26,915.48,378.5,911.83,372,914C371.67,913.33,371.33,912.67,371,912C356.2,914.06,343.78,910.08,330,909C347.16,926.16,442.32,916.41,464.49,907.96C471.23,905.39,479.54,897.61,484,892C484.33,891,484.67,890,485,889C505.33,889,525.67,889,546,889Z" fill="#36190B" stroke="#36190B" stroke-width="1.2" stroke-linejoin="round"/>
<path id="tone-004" d="M575,174C574.67,173.33,574.33,172.67,574,172C553.69,171.94,533.2,171.34,512.91,171.88C505.85,172.07,499.14,175,492,175C486.68,178.08,480.41,178.29,475,181C485.57,181.27,493.76,177.74,504,177C519.66,167.72,556.67,174.35,575,174Z M615,182C603.55,176.28,589.1,173.78,576,174C579.88,174.87,579.88,174.87,581,176C591.91,177.09,604.36,182,615,182Z M475,181L467,181C464.61,182.89,462.93,184.02,460,185C453.45,188.53,441.64,190.33,437,196C441.13,195.43,471.15,183.31,475,181Z M660,201C653.81,193.44,625.96,183.66,616,182C618.9,184.9,656.22,201,660,201Z M408,210C412.36,210,430.65,199.52,433,196C428.25,196.88,428.25,196.88,426,198C421.03,200.49,416.14,203.43,411,206L408,210Z M678,209L674,209C675.98,212.97,692.74,223.87,697,226C692.41,221.24,680.54,214.08,678,209Z M711,238C706.53,233.7,703.26,227.79,697,226C698.98,231.95,715.46,248.31,721,252C721,245.9,712.92,243.77,711,238Z M762,310C761.67,310,761.33,310,761,310C757.13,299.28,747.88,280.88,740,273C740.32,275.77,762.76,321.76,765,324C765.23,317.98,763.81,315.42,762,310Z M771,382C769.67,381.67,768.33,381.33,767,381C767.26,367.63,764.87,354.58,765,341C757.88,351.58,767.63,371.5,763,382C760.21,388.33,749.32,394.74,747.99,402.37C747.78,403.6,747.75,404.85,747.78,406.1C747.81,407.4,747.93,408.7,748,410L749,410C748.54,400.87,757.87,387.46,766,383C768.67,381.54,775.35,383.1,779,382L771,382Z M315,482C315,472.62,305.05,452.67,301,444C301.53,451.35,304.04,456.96,305,464C307.41,468.83,311.25,478.9,315,482Z M334,510C328.95,499.9,319.69,495.16,318,483C317,482.67,316,482.33,315,482L315,486C318.13,489.7,318.91,493.82,321,498C325.15,502.15,328.76,509.38,334,512L334,510Z M785,490L785,486C782.89,487.05,775,497.13,775,499C773.71,502.87,769,505.47,769,509C772.35,505.65,782.26,491.37,785,490Z M299,556L299,554C296.28,555.81,294.26,557.66,292,560C276.8,574.15,259.49,597.81,251,616C250,619,250,619,249,621C255.12,617.94,253.38,611.26,257,607C270.07,591.59,282.43,572.13,298,557L299,556Z M707,632C702.79,627.79,705.94,616.2,704,610L704,624C703.8,630.96,704.32,646.48,708,652C708,645.34,706.9,638.84,707,632Z M713,666C713,661.74,712.01,658.74,710,655L710,663L710,667C715.64,672.64,714.39,688.16,717,696C717.17,685.71,714.37,676.14,713,666Z M754,703C753.67,703,753.33,703,753,703C750.55,695.82,750.21,682.21,745,677C748.59,708.12,772.26,766.35,740,790C743.59,790,745.98,786.51,749,785C751.25,782.95,752,781.99,753,779C754.74,770.88,758.6,760.9,759.24,752.77C760.04,742.72,757.83,732.95,758,723C757.24,717.32,756.82,707.76,754,703Z M721,725C720.33,724.67,719.67,724.33,719,724C719.09,714.9,719.3,706.88,717,698C716.9,708.46,718.17,718.72,718,729L719,731C722.08,741.96,715.91,787.28,723,791C726.09,792.62,734.41,792.06,738,792C738,791.67,738,791.33,738,791C730.95,791.24,725.6,790.74,720,786C724.88,770.13,723.14,741.59,721,725Z M325,728L324,728C316.18,735.4,308.98,744.7,302,753L302,754C303.15,754,315.27,740.17,318,738C322.07,734.97,324.69,733.43,325,728Z M290,818C290,814.15,285.83,811.16,285,807C297.03,798.98,313.32,785.16,322,774C311.41,777.53,295.22,803,285,803C279.49,811.76,288,812.15,288,818L290,818Z M225,788C238.24,788,257.19,793.72,267,779C246.09,785.97,242.6,789.65,220,784C222,786,222,786,225,788Z" fill="#554944" stroke="#554944" stroke-width="1.2" stroke-linejoin="round"/>
<path id="tone-005" d="M576,174L575,174C556.67,174.35,519.66,167.72,504,177C529.08,177,555.84,176.57,581,176C579.88,174.87,579.88,174.87,576,174Z M301,424C300.94,409.93,299.68,394.62,301.03,380.68C302.03,370.32,306.18,361.83,306,351C302.62,357.08,304,369,300,373L300,375C300,391.33,300,407.67,300,424C300.33,424,300.67,424,301,424Z M299,556C302.76,553.5,336.62,520.52,337.38,518.56C338.93,514.56,337.76,511.25,334,510L334,512C336.41,514.41,336.17,515.73,336,519C328.18,522.31,302.7,546.59,299,554L299,556L298,557L299,556Z M712,608C710.41,604.83,709.59,601.59,707,599C704.93,596.93,704.93,597,702,597C701.81,601.91,701.42,605.56,704,610C705.94,616.2,702.79,627.79,707,632C707,623.36,702.48,607.56,705,600C707.65,602.41,708.97,606.48,712,608Z M388,630C392.44,633.51,391.26,637.94,391,643C391.33,643,391.67,643,392,643C392.66,623.64,380.83,622.5,375,640C376.67,638.33,378.33,636.67,380,635C381.99,631.02,383.76,630.67,388,630Z M365,663C365,656.54,371.11,650.83,372,644C371.04,644.96,331.13,714.45,329.06,719.44C328.08,721.82,324,726.03,324,728L325,728L328,725C333.35,714.31,339.54,703.59,347,694C350.65,690.6,352.41,686.26,356,683C356,677.29,362.17,668.45,365,663Z M721,725C721.27,709.54,720.51,679.51,713,666C714.37,676.14,717.17,685.71,717,696L717,698C719.3,706.88,719.09,714.9,719,724C719.67,724.33,720.33,724.67,721,725Z M302,754L302,753C293.96,755.68,273.43,772.57,267,779C272.62,779,296.48,758.64,302,754Z" fill="#5C534F" stroke="#5C534F" stroke-width="1.2" stroke-linejoin="round"/>
<path id="tone-006" d="M615,182C604.36,182,591.91,177.09,581,176C555.84,176.57,529.08,177,504,177C493.76,177.74,485.57,181.27,475,181C471.15,183.31,441.13,195.43,437,196L433,196C430.65,199.52,412.36,210,408,210L407,210C400.29,216.95,393.24,219.85,386,226C371.42,238.41,359.45,252.55,346,266C341.11,269.54,339.29,270.78,339,277C336.14,285.57,325.3,303.7,319,310C318.37,314.56,314.32,324.98,312,329C311.67,329,311.33,329,311,329C309.85,335.9,306,344.23,306,351C306.18,361.83,302.03,370.32,301.03,380.68C299.68,394.62,300.94,409.93,301,424L301,444C305.05,452.67,315,472.62,315,482C316,482.33,317,482.67,318,483C319.69,495.16,328.95,499.9,334,510C337.76,511.25,338.93,514.56,337.38,518.56C336.62,520.52,302.76,553.5,299,556L298,557C282.43,572.13,270.07,591.59,257,607C253.38,611.26,255.12,617.94,249,621C246.55,626.1,243.54,630.92,241,636C241.54,641.97,231.38,658.49,228,665C226.16,668.55,226.57,673.67,225,677.38C212.95,705.95,202.75,745.26,213,776C214.19,779.38,215.28,781.65,218,784L220,784C242.6,789.65,246.09,785.97,267,779C273.43,772.57,293.96,755.68,302,753C308.98,744.7,316.18,735.4,324,728C324,726.03,328.08,721.82,329.06,719.44C331.13,714.45,371.04,644.96,372,644C374.35,642.82,374.18,642.45,375,640C380.83,622.5,392.66,623.64,392,643C391.67,643,391.33,643,391,643C389.22,648.55,389.93,655.23,390,661C389.33,661,388.67,661,388,661C388,663,388,665,388,667L389,667C389,665.82,391.43,662.72,392,661C392,656.94,412.06,623.98,415,623L417,621C427.47,590.48,483.96,531.98,513.35,518.04C516.46,516.56,524.69,515.4,524,510C523.44,505.67,513.74,501.21,512,496C510.88,493.75,510.88,493.75,509,489C502.14,485.57,502.48,479.29,498,474C482.11,460.87,479.45,379.55,494,365C495.27,355.68,509.27,328.91,518,326C518,323.51,525.8,317.61,528,316C528,304.18,578.51,286.6,589,287C589,286.67,589,286.33,589,286C599.08,282.64,610.47,283.93,621,284C621.33,284.67,621.67,285.33,622,286C635.31,285.39,683.78,302.56,690,315C695.29,320.29,711,330.38,711,338C713.4,339.01,721,347.59,721,350C729.84,353.71,739.45,376.2,739,386C742.46,389.46,749.76,408.24,746,412C746,416.67,746,421.33,746,426C746.67,426.33,747.33,426.67,748,427L748,410C747.93,408.7,747.81,407.4,747.78,406.1C747.75,404.85,747.78,403.6,747.99,402.37C749.32,394.74,760.21,388.33,763,382C767.63,371.5,757.88,351.58,765,341C764.25,337.34,763.76,334.58,765,331C766.67,331.33,768.33,331.67,770,332C770,329.36,766.99,325.99,765,324C762.76,321.76,740.32,275.77,740,273C734.17,269.05,725.88,257.91,721,252C715.46,248.31,698.98,231.95,697,226C692.74,223.87,675.98,212.97,674,209C671.61,203.88,670.76,202.7,665,203C664.67,202.33,664.33,201.67,664,201L660,201C656.22,201,618.9,184.9,616,182L615,182Z M322,777C324.53,772.34,329.38,768.86,331,764C326.53,767.5,325.43,770.57,322,774C313.32,785.16,297.03,798.98,285,807C285.83,811.16,290,814.15,290,818C290.57,825.71,308.38,834.73,315,837L314,835C310.1,833.05,312.9,829.95,309,828C309.25,818.88,304.39,802.58,314,797L314,796C314,789.14,316.35,781.36,322,777Z" fill="#615B59" stroke="#615B59" stroke-width="1.2" stroke-linejoin="round"/>
<path id="tone-007" d="M437,196C441.64,190.33,453.45,188.53,460,185C452.16,185.9,438.62,190.38,433,196L437,196Z M346,266C359.45,252.55,371.42,238.41,386,226C393.24,219.85,400.29,216.95,407,210C391.46,215.18,367.98,238.11,357.62,251.21C356.32,252.86,352.89,258,351,258C350.17,260.48,346,264.39,346,266Z M740,269C728.89,261.59,722.05,246.74,711,238C712.92,243.77,721,245.9,721,252C725.88,257.91,734.17,269.05,740,273L740,271L740,269Z M319,310C325.3,303.7,336.14,285.57,339,277L333,282C330.28,290.15,319,302.05,319,310Z M306,351C306,344.23,309.85,335.9,311,329C308.14,331.86,306.79,335.43,305,339C305.48,349.61,300,361.78,300,373C304,369,302.62,357.08,306,351Z M416,823C416,822.67,416,822.33,416,822C407.33,822,398.67,822,390,822C380.41,821.73,370.48,822.76,362,827L370,827C372.22,824.78,386.41,823.92,390,824C390,823.67,390,823.33,390,823C398.67,823,407.33,823,416,823Z M300,375L299,375C299.64,394.34,290.64,425.89,301,444L301,424C300.67,424,300.33,424,300,424C300,407.67,300,391.33,300,375Z M685,405C684,401.71,683.46,399.46,681,397L681,401C683.76,405.99,685.86,437,679,437C677.63,441,675.74,443.8,673,447C667.13,452.87,655.54,453.16,648,451C653.83,454.88,661.45,454.88,668,453L670,453C680.83,442.17,680.83,442.17,683,440L683,436C684.45,425.2,685.1,415.96,685,405Z M775,453C771.76,449.76,759.58,443.72,755,443C757.27,445.75,759.48,448.48,762,451C763.56,450.85,795.15,458.07,797,459C798,462.87,798,462.87,798,464C798.33,464,798.67,464,799,464C799,462,799,460,799,458C791.4,455.88,782.83,454.81,775,453Z M299,554C302.7,546.59,328.18,522.31,336,519C336.17,515.73,336.41,514.41,334,512C334,514,334,516,334,518C330.09,519.3,292,556.84,292,560C294.26,557.66,296.28,555.81,299,554Z M686,614C685.28,608.72,682.25,587.44,679,585C679.55,589.03,680.16,593.02,681,597C680.92,600.33,680.52,605.52,683,608C684,610,685,612,686,614Z M707,595L705,595C703.67,594.33,702.33,593.67,701,593C700.45,595.08,700,596.84,700,599C700.5,604.57,702,610.52,702,616C702.67,618.67,703.33,621.33,704,624L704,610C701.42,605.56,701.81,601.91,702,597C704.93,597,704.93,596.93,707,599L707,595Z M275,777C286.36,765.64,312.91,753.28,318,738C315.27,740.17,303.15,754,302,754C296.48,758.64,272.62,779,267,779C257.19,793.72,238.24,788,225,788C230.85,791.25,236.48,791.13,243,791C252.41,791,259.53,785.82,268,783C268,782.67,268,782.33,268,782C271.34,780.89,272.64,779.53,275,777Z M391,643C391.26,637.94,392.44,633.51,388,630C388.07,638.16,388.98,670.51,382,674L382,678C382.33,678,382.67,678,383,678C384.86,674.39,386.14,670.6,388,667C388,665,388,663,388,661C388.67,661,389.33,661,390,661C389.93,655.23,389.22,648.55,391,643Z M365,663C370.28,655.08,376.72,643.9,380,635C378.33,636.67,376.67,638.33,375,640C374.18,642.45,374.35,642.82,372,644C371.11,650.83,365,656.54,365,663Z M213,776C202.75,745.26,212.95,705.95,225,677.38C226.57,673.67,226.16,668.55,228,665C231.38,658.49,241.54,641.97,241,636C238.99,638.56,237.37,641.05,236,644C235.67,644,235.33,644,235,644C234.08,647.01,226.94,664.53,226,665C225,666,224,667,223,668L223,672C221,683.97,214.03,695.81,212,708C211.67,708,211.33,708,211,708L211,709C211.66,729.61,204.55,748.11,209,771C211,773,211,773,212,776C212.33,776,212.67,776,213,776Z M344,702C345.41,699.36,346.37,696.93,347,694C339.54,703.59,333.35,714.31,328,725C332.47,722.77,342.14,707.05,344,702Z M738,791C738,791.33,738,791.67,738,792C734.41,792.06,726.09,792.62,723,791C715.91,787.28,722.08,741.96,719,731C719.07,739.6,722.07,765.19,719,772C716.99,776.46,716,781.51,716,787C719.9,794.81,735.43,794.45,743,792C744.62,788.75,747.24,789.19,749,785C745.98,786.51,743.59,790,740,790L738,791Z M585,833L589,830C583.65,830.59,571,836.5,568,841C573.05,841,579.64,834.79,585,833Z" fill="#4D3F39" stroke="#4D3F39" stroke-width="1.2" stroke-linejoin="round"/>
<path id="tone-008" d="M426,198C430.58,191.13,440.05,190.74,447,187C431.94,188.74,420.86,196.14,411,206C416.14,203.43,421.03,200.49,426,198Z M653,192L649,192C653.69,195.97,659.54,196.54,664,201C664.33,201.67,664.67,202.33,665,203C670.76,202.7,671.61,203.88,674,209L678,209C678,202.67,657.78,196.05,653,192Z M774,268C774,259.79,748.92,232.47,742,227C742.87,229.61,767.67,262.05,770.99,265.85C771.97,266.98,772.43,268,774,268Z M641,399C642.5,394.5,644.06,389.67,647,386C642.26,387.58,641.08,391.96,637,394C635.29,395.63,634.07,396.87,633,399C631.61,409.2,629.8,416.24,630,427C630.63,429.93,631.59,432.36,633,435C633,425.78,627.82,415.68,633,407C637.15,402.85,636.05,397.31,641,393C641,395,641,397,641,399L640,400L641,399Z M315,486C314.67,486,314.33,486,314,486C311.75,481.18,308.46,476.91,306,472C307.21,482.63,315.77,488.89,320,498C320.33,498,320.67,498,321,498C318.91,493.82,318.13,489.7,315,486Z M749,410L748,410L748,427C747.63,433.97,750.6,432.2,753,437C753,428.67,749.82,419.66,750,410L749,410Z M773,511C773,511.33,773,511.67,773,512C777.58,509.1,783.54,499.1,786,494C785.33,494,784.67,494,784,494C784.33,492.67,784.67,491.33,785,490C782.26,491.37,772.35,505.65,769,509C761.76,514.98,748.87,525.7,744,533C748.59,533,764.19,516.71,769,513L770,512C770,510.37,771.69,509.87,773,509C773,509.67,773,510.33,773,511Z M732,587L730,586L731,589C736.44,599.89,747.45,610.1,750,622C750.67,622,751.33,622,752,622C753.22,628.12,759.28,634.91,762.12,640.7C763.75,644.02,762.14,647.02,763,650C766,660.34,772.64,662.37,772,675C773.33,675,774.67,675,776,675C776,658.98,743.52,598.52,732,587Z M251,616C251.7,611.56,254.16,609.2,255,605C250.58,609.13,245.84,615.98,245,622C244,622.33,243,622.67,242,623C242.34,627.29,237.47,635.41,235,640C241.94,633.66,243.84,622.7,251,616Z M731,634C731,628.72,725.57,622.57,722,619L722,623C724.24,625.24,728.72,634,731,634Z M710,663C704.66,657.66,704.63,649.04,704,642C703.33,641.33,702.67,640.67,702,640C701.67,641,701.33,642,701,643C700.67,641.67,700.33,640.33,700,639C698.36,640.64,698.4,642.78,698,645C695.78,644.95,692.68,644.32,691,646C690.79,674.98,695.26,703.01,695,732L696,732C696.12,712.24,693.63,692.45,694,673C691.77,665.46,691.89,655.86,692,648C695.58,647.3,699.37,646,703,646C704.07,656.63,709.45,669.05,709,679C712.11,680.56,715.12,722.64,715,729C715.33,729,715.67,729,716,729L716,721C716.29,702.55,711.83,685.22,710,667L710,663Z M291,767C305.43,760.3,347.99,710.88,350,696C349,697,349,697,344,702C342.14,707.05,332.47,722.77,328,725L325,728C324.69,733.43,322.07,734.97,318,738C312.91,753.28,286.36,765.64,275,777C281.26,774.91,285.07,768.98,291,767Z M209,771C203.11,760.01,205.94,739.49,206,727C201.37,744.03,199.54,775.66,218,784C215.28,781.65,214.19,779.38,213,776C212.67,776,212.33,776,212,776C211,773,211,773,209,771Z M743,792C753.39,786.8,754.31,774.84,760,772C760,769.33,760,766.67,760,764C758.79,766.33,757.83,768.5,757,771C755.25,776.75,755.25,776.75,753,779C752,781.99,751.25,782.95,749,785C747.24,789.19,744.62,788.75,743,792Z M231,792C231,792.33,231,792.67,231,793C242.12,793.27,260.06,791.79,268,783C259.53,785.82,252.41,791,243,791C239.02,792.33,235.15,792.07,231,792Z M288,818C287,817,287,817,284,816C285.79,820.85,294.95,833,300,833C296.15,827.82,289.81,824.32,288,818Z M655,826L652,826C659.07,829.93,667.15,830.13,675,830C675,829.67,675,829.33,675,829C668.37,829,661.73,826.66,655,826Z M433,827C429.57,824.72,420.18,822.77,416,823C407.33,823,398.67,823,390,823C390,823.33,390,823.67,390,824C405.03,823.79,418.81,827,433,827Z" fill="#351F16" stroke="#351F16" stroke-width="1.2" stroke-linejoin="round"/>
<path id="tone-009" d="M740,269C740,262.68,696.7,221.01,690,214C689.03,212.99,679.66,209.51,678,209C680.54,214.08,692.41,221.24,697,226C703.26,227.79,706.53,233.7,711,238C722.05,246.74,728.89,261.59,740,269Z M300,373C300,361.78,305.48,349.61,305,339C302.39,341.61,301,345.36,301,349C300.2,357.9,298.87,366,299,375L300,375L300,373Z M273,465L272,465C273.13,473.27,276.38,479.76,280,487C279.02,484.07,278.92,482.04,279,479C278.67,479,278.33,479,278,479C276.03,474.41,275.41,469.33,273,465Z M770,548C772.43,545.57,778.15,539.54,779,537L775,539C773.06,541.65,762,553.24,762,555C764.95,552.89,767.48,550.61,770,548Z M456,833C453.75,833,453.75,833,448,831C449,833,449,833,451,835C454.02,837.69,455.98,838.34,460,838C458.93,835.87,457.71,834.63,456,833Z" fill="#39241B" stroke="#39241B" stroke-width="1.2" stroke-linejoin="round"/>
<path id="tone-010" d="M765,312C765,306.7,744.15,272.61,740,271L740,273C747.88,280.88,757.13,299.28,761,310C761.33,310,761.67,310,762,310L765,312Z M285,803C290.5,797.5,303.45,790.72,306,784C299.44,787.28,279.11,802.63,279.79,810.04C279.98,812.14,281.5,816,284,816C287,817,287,817,288,818C288,812.15,279.49,811.76,285,803Z" fill="#39261D" stroke="#39261D" stroke-width="1.2" stroke-linejoin="round"/>
<path id="tone-011" d="M319,310C319,302.05,330.28,290.15,333,282L330,284C322.41,291.59,305,328.72,305,339C306.79,335.43,308.14,331.86,311,329C311.33,329,311.67,329,312,329C314.32,324.98,318.37,314.56,319,310Z" fill="#382219" stroke="#382219" stroke-width="1.2" stroke-linejoin="round"/>
<path id="tone-012" d="M622,286C621.67,285.33,621.33,284.67,621,284C610.47,283.93,599.08,282.64,589,286C589,286.33,589,286.67,589,287C599.92,287.18,610.89,285.91,622,286Z M573,292C577.79,287.21,583.62,290.44,589,287C578.51,286.6,528,304.18,528,316C533.05,316,543.79,302.3,552,301C552.33,300,552.67,299,553,298C560.65,296.69,565.16,292.76,573,292Z M513,334C514.37,331.05,515.99,328.56,518,326C509.27,328.91,495.27,355.68,494,365L496,364C496.76,357.27,506.97,337.01,513,334Z" fill="#736C69" stroke="#736C69" stroke-width="1.2" stroke-linejoin="round"/>
<path id="tone-013" d="M690,315C683.78,302.56,635.31,285.39,622,286C610.89,285.91,599.92,287.18,589,287C583.62,290.44,577.79,287.21,573,292C570.67,293.21,568.5,294.17,566,295C566,295.33,566,295.67,566,296C570.89,296,577.31,291.92,582.26,290.72C595.03,287.63,626.56,285.79,638,292C642.42,294.45,649.99,297,655,297C665.73,298.22,673,306.5,682,311C684.33,311.78,688.08,315,690,315Z M506,346C508.12,341.76,511.11,338.21,513,334C506.97,337.01,496.76,357.27,496,364C497.37,361.05,498.99,358.56,501,356C502.24,352.29,504.77,349.69,506,346Z M502,476C500.89,473.78,499.51,471.96,498,470L498,474C502.48,479.29,502.14,485.57,509,489L509,485C506.04,482.04,504.76,478.76,502,476Z" fill="#968E89" stroke="#968E89" stroke-width="1.2" stroke-linejoin="round"/>
<path id="tone-014" d="M631,292L638,292C626.56,285.79,595.03,287.63,582.26,290.72C577.31,291.92,570.89,296,566,296C563.03,297.12,560.67,298.22,558,300L558,301C563.65,299.28,565.95,296.74,572,297C572,296.67,572,296.33,572,296C574.67,295.67,577.33,295.33,580,295C587.81,287.19,620.53,289.78,631,292Z M682,311C673,306.5,665.73,298.22,655,297C658.13,299.64,661.09,300.84,665,302C665,302.33,665,302.67,665,303C671.65,306.11,677.16,311.81,684,315L682,311Z M775,351L775,347C773.67,344.33,772.33,341.67,771,339C770.33,339.33,769.67,339.67,769,340C768.93,345.66,768.32,363.32,772,367C772,360.96,770.89,355.19,771,349C771.67,348.67,772.33,348.33,773,348C773.67,349,774.33,350,775,351Z M780,362C777.58,358.37,778.03,354.03,775,351C775.44,355.41,775.83,359.7,777,364C777.46,367.43,779.52,373.95,778,377C776.33,377,774.67,377,773,377C773,373.67,773,370.33,773,367L772,367C771.96,369.8,771.08,377.08,773,379C776.63,379.2,778.87,378.86,782,377C781,373.43,781,373.43,780,366L780,362Z M685,397C683.56,390.29,676.55,382.18,670,380C673.23,384.85,678.26,387.52,681,393C682.33,394.33,683.67,395.67,685,397Z M492,392L492,385C486.19,395.24,487.9,415.33,488,427L488,430C490.02,437.78,490.56,448.34,495,455L495,451C489.73,431.41,487.72,412.16,492,392Z M707,556C708.67,554.33,710.33,552.67,712,551C708.66,551.56,705.97,552.35,703,554C693.99,555.61,668.15,566.8,669,577C669.33,577,669.67,577,670,577C670,572,671.02,569.66,676,568C682.75,564.5,691.63,559.82,699,559C701.54,555.2,702.67,555.72,707,556Z M414,631C414.67,631,415.33,631,416,631C420.1,617.54,438.46,601.43,440,590C429.44,598.26,427.4,611.6,419,620C417.65,624.06,414.77,626.67,414,631Z M389,673C395.8,666.2,408.54,647.25,410,638L407,640C401.45,645.19,401.07,649.85,398,656C396.11,661.68,389,667.25,389,673Z M338,759C343.91,754.61,351.83,744.43,353,737C349.57,740.26,347.61,744.59,344,747C339.66,751.11,337.25,754.17,336,760L338,759Z M386,819L382,819C378.6,818.86,366,817.52,366,823C372.61,821.29,379.48,820.83,386,819Z M440,822C436.96,822,434.43,821.86,433,819C427.67,819,422.33,819,417,819L417,821L419,821C429.24,820.83,438.82,827,447,827C447,826.67,447,826.33,447,826C444.08,824.93,442.22,824.22,440,822Z M570,836C576.66,832.55,583.36,829.43,590,826C582.16,826.9,577.45,829.7,571,834L570,836Z" fill="#CDC5BD" stroke="#CDC5BD" stroke-width="1.2" stroke-linejoin="round"/>
<path id="tone-015" d="M634,294L631,292C620.53,289.78,587.81,287.19,580,295C597.36,295,616.5,294.49,634,294Z M769,501C768.67,500,768.33,499,768,498C765.45,501.12,761.02,508,757,508C754.39,515.82,743.35,522.32,738,529C739,529.33,740,529.67,741,530C735.81,531.73,728.85,537.93,725,542C727.67,542,734.7,535.53,738,534C748.94,523.06,759.54,513.94,769,501Z M456,574C461.39,572.2,474.24,560.29,476,555C469.72,559.97,460.6,567.69,456,574Z M686,652C685.33,651.67,684.67,651.33,684,651C684.16,646.77,684.33,643.63,682,640C681.82,649.49,685.26,658.64,685,668C685.33,668,685.67,668,686,668L686,660L686,652Z M366,724C364.26,724,364.21,724.21,363,723C359.55,726.29,356.86,729.2,356,734C360.05,729.95,364.6,732.09,366,724Z M678,814C678,809.14,681.3,804.11,682,799C681.33,799,680.67,799,680,799C679.67,797.67,679.33,796.33,679,795C676.12,800.21,676.01,806.4,673,812C673.67,812.33,674.33,812.67,675,813C672.87,815.34,670.88,816.71,668,818C668.33,818.33,668.67,818.67,669,819C670.67,818.33,672.33,817.67,674,817C674,818.67,674,820.33,674,822C669.22,822.08,664.64,822.38,660,821C664.17,823.35,668.34,823.62,673,824C675.74,822.63,675.78,820.22,678,818L678,814Z M460,832C460,831.67,460,831.33,460,831C455.72,829.57,451.91,826.07,447,824C448.33,823.67,449.67,823.33,451,823C447.03,821.68,444.83,818.72,441,817C440.67,817.33,440.33,817.67,440,818C441.33,819,442.67,820,444,821C442.67,821.33,441.33,821.67,440,822C442.22,824.22,444.08,824.93,447,826C447,826.33,447,826.67,447,827C452.08,827.71,455.11,831.13,460,832Z M332,833L332,833C327.62,835.69,322.9,835,318,835L320,839C332.67,839,320.11,847.59,335,834L332,833Z" fill="#EFE9DF" stroke="#EFE9DF" stroke-width="1.2" stroke-linejoin="round"/>
<path id="tone-016" d="M566,296C566,295.67,566,295.33,566,295C568.5,294.17,570.67,293.21,573,292C565.16,292.76,560.65,296.69,553,298C552.67,299,552.33,300,552,301L558,300C560.67,298.22,563.03,297.12,566,296Z M630,427C629.8,416.24,631.61,409.2,633,399C626.51,406.67,627.81,416.65,628,426C627.77,433.12,636.34,453,645,453C637.93,444.06,629.41,439.93,630,427Z M739,534L738,534C734.7,535.53,727.67,542,725,542L721,544C719.15,545.91,714.59,551,712,551C710.33,552.67,708.67,554.33,707,556C709.39,555.42,711.67,554.78,714,554C718.73,549.27,731.67,538.11,738,536L739,534Z M380,690C381.13,687.75,381.13,687.75,382,683C380.67,684.33,379.33,685.67,378,687C376.4,691.8,372,696.19,372,701C373.91,701,377.95,692.05,380,690Z M331,768C331.33,768,331.67,768,332,768C333.04,764.89,334.96,763.11,336,760L331,764C329.38,768.86,324.53,772.34,322,777L322,781C325.86,776.3,326.15,772.48,331,768Z" fill="#8C817A" stroke="#8C817A" stroke-width="1.2" stroke-linejoin="round"/>
<path id="tone-017" d="M638,292L631,292L634,294C641.84,296.87,657.08,303,665,303C665,302.67,665,302.33,665,302C661.09,300.84,658.13,299.64,655,297C649.99,297,642.42,294.45,638,292Z M492,392C502.73,359.81,503.62,348.96,529.15,324.57C534.71,319.27,540.31,311.9,547,308C554.63,303.55,563.98,301.32,572,297C565.95,296.74,563.65,299.28,558,301C543.92,302.9,522.94,324.56,513.8,335.23C511.22,338.24,509.45,344.28,506,346C504.77,349.69,502.24,352.29,501,356C500.23,362.76,495.78,378.32,492,384L492,385L492,392Z" fill="#E4DCD3" stroke="#E4DCD3" stroke-width="1.2" stroke-linejoin="round"/>
<path id="tone-018" d="M665,303C657.08,303,641.84,296.87,634,294C616.5,294.49,597.36,295,580,295C577.33,295.33,574.67,295.67,572,296C572,296.33,572,296.67,572,297C563.98,301.32,554.63,303.55,547,308C540.31,311.9,534.71,319.27,529.15,324.57C503.62,348.96,502.73,359.81,492,392C487.72,412.16,489.73,431.41,495,451C498.5,454.8,500,462.94,500,468C501,468.33,502,468.67,503,469C503.68,476.37,509,478.28,509,485L509,489C513.26,490.42,535.38,511.31,526,516C522.69,520.32,511.12,529,506,529C503.88,529.71,500.42,533,499,533C491.97,540.3,481.56,546.67,476,555C474.24,560.29,461.39,572.2,456,574C453.27,576.17,441.15,590,440,590C438.46,601.43,420.1,617.54,416,631C415.33,631,414.67,631,414,631C411.81,633.19,411.34,635.32,410,638C408.54,647.25,395.8,666.2,389,673C387.12,678.75,387.12,678.75,386,681C386.33,681.33,386.67,681.67,387,682C388,681.33,389,680.67,390,680C390.71,686.41,386.77,686.68,385,692C384.67,691,384.33,690,384,689C381.68,695.61,374.66,700.01,373,705C372.67,705,372.33,705,372,705C371.19,709.86,369.17,713.66,367,718C368,718.33,369,718.67,370,719C369,722,369,722,366,724C364.6,732.09,360.05,729.95,356,734L353,736L353,737C351.83,744.43,343.91,754.61,338,759C336.73,766.6,332.14,775.91,326,780C322.92,783.08,317,793.57,317,798C317.41,805.07,313.66,809.06,313.73,815.09C313.82,822.42,318.31,827.04,318,835C322.9,835,327.62,835.69,332,833L335,834C337.67,832.67,340.33,831.33,343,830C343,829.33,343,828.67,343,828C341.67,827.33,340.33,826.67,339,826C342.39,826,343.46,825.1,346,823C346,823.67,346,824.33,346,825C351.83,826.94,359.2,822.77,366,823C366,817.52,378.6,818.86,382,819C386.08,814.92,410.17,815.78,415,819L417,819C422.33,819,427.67,819,433,819C434.43,821.86,436.96,822,440,822C441.33,821.67,442.67,821.33,444,821C442.67,820,441.33,819,440,818C440.33,817.67,440.67,817.33,441,817C444.83,818.72,447.03,821.68,451,823C449.67,823.33,448.33,823.67,447,824C451.91,826.07,455.72,829.57,460,831C460,831.33,460,831.67,460,832L460,833C465.48,833.72,481.57,850.22,485,855C486.63,857.27,484.47,859.96,488.05,861.78C496.36,866.01,533.9,862.07,545,862C545,861.67,545,861.33,545,861C548.11,851.68,561.72,837.26,571,834C577.45,829.7,582.16,826.9,590,826C590,823.04,595.53,823.11,597.64,823.03C603.76,822.82,610.76,818.67,616.88,817.87C631.09,816,646.06,818.78,660,821C664.64,822.38,669.22,822.08,674,822C674,820.33,674,818.67,674,817C672.33,817.67,670.67,818.33,669,819C668.67,818.67,668.33,818.33,668,818C670.88,816.71,672.87,815.34,675,813C674.33,812.67,673.67,812.33,673,812C676.01,806.4,676.12,800.21,679,795C679.33,796.33,679.67,797.67,680,799C680.67,799,681.33,799,682,799C682,796.4,684.39,787.72,686,785C689.84,771.83,690.13,756.64,690,743C690.24,717.38,685.68,693.57,686,668C685.67,668,685.33,668,685,668C685.26,658.64,681.82,649.49,682,640C682,624.49,676.46,606,675,590C673.57,585.52,671.47,581.42,670,577C669.67,577,669.33,577,669,577C668.15,566.8,693.99,555.61,703,554C706.48,549.97,715.81,545.53,721,544L725,542C728.85,537.93,735.81,531.73,741,530C740,529.67,739,529.33,738,529C743.35,522.32,754.39,515.82,757,508C761.02,508,765.45,501.12,768,498C768.33,499,768.67,500,769,501C775.37,494.63,778.78,484.68,785,479C786.57,473.67,790.25,469.41,791,464C786.12,462.37,779.71,463.71,776,460L775,458C771.13,458,763.61,454.23,762,451C755.35,447.67,750.88,446.06,749,438C744.63,435.46,744.44,433.9,744,429C743.67,429,743.33,429,743,429C743,420.67,743,412.33,743,404C742,403.67,741,403.33,740,403C738.58,395.92,735.82,389.07,735,382C732.79,366.12,715.95,352.86,711,338C704.08,331.08,693.22,318.07,684,315C677.16,311.81,671.65,306.11,665,303ZM670,380C676.55,382.18,683.56,390.29,685,397C691.48,403.48,688,424.5,688,433C687.65,436.65,688.43,440.29,685,442C685,442.67,685,443.33,685,444C686.67,443,688.33,442,690,441C689.67,442.33,689.33,443.67,689,445C682.44,445,679.3,452.17,674,455C668.3,458.05,658.41,458.18,652,458C652,457.67,652,457.33,652,457C648.89,457,646.44,455.89,645,453C636.34,453,627.77,433.12,628,426C620.79,413.33,629.15,386.62,643,382C647.74,372.51,663.24,377.75,670,380ZM332,833L332,833Z" fill="#F9F1E6" stroke="#F9F1E6" stroke-width="1.2" stroke-linejoin="round"/>
<path id="tone-019" d="M558,301L558,300L552,301C548.36,304.64,542.26,306.76,538.05,310.07C528.81,317.33,521.37,325.94,513,334C511.11,338.21,508.12,341.76,506,346C509.45,344.28,511.22,338.24,513.8,335.23C522.94,324.56,543.92,302.9,558,301Z M721,350C721,347.59,713.4,339.01,711,338C715.95,352.86,732.79,366.12,735,382C736.33,384.67,737.67,387.33,739,390L739,386C738.67,386,738.33,386,738,386C736.1,380.16,733.99,371.24,731.66,366.18C729.11,360.66,723.16,356.49,721,350Z M685,397C683.67,395.67,682.33,394.33,681,393L681,397C683.46,399.46,684,401.71,685,405C690.73,415.13,685.67,425.96,684,436C683.67,436,683.33,436,683,436L683,440C685,439,685,439,688,433C688,424.5,691.48,403.48,685,397Z M495,455C490.56,448.34,490.02,437.78,488,430C487.74,445.4,493.34,456.01,498,470C499.51,471.96,500.89,473.78,502,476C502,473.75,502,473.75,500,468C499.67,468,499.33,468,499,468C498.21,462.99,495.68,460.25,495,455Z M755,443C753.06,441,751.5,439.25,749,438C750.88,446.06,755.35,447.67,762,451C759.48,448.48,757.27,445.75,755,443Z M668,453C661.99,457.01,651.5,455.51,645,453C646.44,455.89,648.89,457,652,457C658.38,457.23,665.09,457.91,670,453L668,453Z M526,516C535.38,511.31,513.26,490.42,509,489C510.88,493.75,510.88,493.75,512,496C517.29,500.19,526.14,507.49,527,514C525.33,514.67,523.67,515.33,522,516C522,516.33,522,516.67,522,517L526,516Z M506,529C509.73,523.4,515.53,522.78,520,518C510.46,521.18,462,557.14,462,566C470.19,557.49,488.37,536.54,499,533C500.42,533,503.88,529.71,506,529Z M674,580C668.84,577.42,673.17,571.01,676,568C671.02,569.66,670,572,670,577C671.47,581.42,673.57,585.52,675,590L677,593C677,588.04,676.42,584.35,674,580Z M414,631C414.77,626.67,417.65,624.06,419,620L417,621L415,623C412.89,628.44,407.96,634.63,407,640L410,638C411.34,635.32,411.81,633.19,414,631Z M678,818C678.33,818,678.67,818,679,818C682,810.29,685.87,802.25,687,794C685.13,797.87,685.13,797.87,684,799C682.22,803.99,682.32,810.62,678,814L678,818Z M318,835C317.67,835,317.33,835,317,835C316.45,830.15,313.89,827.77,312.99,823.53C311.02,814.29,314.58,807.53,316,799C313.22,801.78,313.21,805.69,311,809C310.91,817.38,310.15,827.3,314,835L315,837C318,838,318,838,320,839L318,835Z" fill="#B6ABA1" stroke="#B6ABA1" stroke-width="1.2" stroke-linejoin="round"/>
<path id="tone-020" d="M513,334C521.37,325.94,528.81,317.33,538.05,310.07C542.26,306.76,548.36,304.64,552,301C543.79,302.3,533.05,316,528,316C525.8,317.61,518,323.51,518,326C515.99,328.56,514.37,331.05,513,334Z" fill="#887E79" stroke="#887E79" stroke-width="1.2" stroke-linejoin="round"/>
<path id="tone-021" d="M690,315C688.08,315,684.33,311.78,682,311L684,315C693.22,318.07,704.08,331.08,711,338C711,330.38,695.29,320.29,690,315Z M670,453C676.45,453,682.2,445.93,683,440C680.83,442.17,680.83,442.17,670,453Z M389,673C389,667.25,396.11,661.68,398,656C395.63,657.58,393.93,658.98,392,661C391.43,662.72,389,665.82,389,667C388.52,671.26,384.95,680.05,382,683C381.13,687.75,381.13,687.75,380,690C380.33,690,380.67,690,381,690C382.63,686.85,383.47,683.53,386,681C387.12,678.75,387.12,678.75,389,673Z M363,723L363,719C361,721,359,723,357,725C356.25,729.75,356.25,729.75,354,732L353,736L356,734C356.86,729.2,359.55,726.29,363,723Z M326,780C326,778.69,330.19,770.44,331,768C326.15,772.48,325.86,776.3,322,781C320.27,786.19,317.44,791.11,315,796C314.67,796,314.33,796,314,796L314,797C313.29,801.28,311,804.72,311,809C313.21,805.69,313.22,801.78,316,799L317,798C317,793.57,322.92,783.08,326,780Z" fill="#ADA49E" stroke="#ADA49E" stroke-width="1.2" stroke-linejoin="round"/>
<path id="tone-022" d="M772,332L770,332C768.33,331.67,766.67,331.33,765,331C763.76,334.58,764.25,337.34,765,341C764.87,354.58,767.26,367.63,767,381C768.33,381.33,769.67,381.67,771,382C765.8,378.07,765.91,341.41,766,333C768.72,333.53,769.71,333.41,771,336C774.15,339.42,774.56,342.44,775,347L775,351C778.03,354.03,777.58,358.37,780,362L780,358L780,354C776.72,347.45,774.13,339,772,332Z M798,464C798,462.87,798,462.87,797,459C797,461,797,463,797,465C796.33,465,795.67,465,795,465C794.21,469.84,792.53,472.63,789,476C787.71,479.87,785,481.79,785,486C791.22,480.37,792.55,471.45,798,466L798,464Z M681,597L679,595C679.94,605.52,684.39,616.96,684,627C684.33,627,684.67,627,685,627C685.11,620.26,683.89,614.61,683,608C680.52,605.52,680.92,600.33,681,597Z M372,705L372,701C369.5,703.5,368.5,706.5,366,709C362.89,711.07,362.02,712.98,360,716C359.44,719.34,358.65,722.03,357,725C359,723,361,721,363,719C365.04,714.61,368.6,708.4,372,705Z M340,836L338,836C332.05,837.98,326.28,850.83,320,839C318,838,318,838,315,837L315,839C331.09,851.76,327.29,840,336,840L340,836Z M549,864C550.8,854.98,560.32,848.18,566,841C558.67,843.44,554.12,853.88,549,859C547.12,863.88,547.12,863.88,546,865L549,864Z" fill="#716259" stroke="#716259" stroke-width="1.2" stroke-linejoin="round"/>
<path id="tone-023" d="M777,338C776.67,338,776.33,338,776,338C774.98,335.16,774.78,333.39,772,332C774.13,339,776.72,347.45,780,354L780,350C780,346.02,777.9,341.91,777,338Z M827,464C829.23,460.66,828.47,457.88,830,455C835.44,444.79,843.16,442.51,845,429C839.69,438.85,838,442,830,450C828.19,455.42,826.77,457.98,827,464Z M334,512C328.76,509.38,325.15,502.15,321,498C322.22,505.71,329.79,509.14,330.85,515.02C331.74,519.97,301.26,545.74,296,551C290.64,560.25,276.45,576.61,268,583C261.85,589.15,262.71,599.86,255,605C254.16,609.2,251.7,611.56,251,616C259.49,597.81,276.8,574.15,292,560C292,556.84,330.09,519.3,334,518C334,516,334,514,334,512Z M235,644L235,642C229.69,648.51,226,656.61,226,665C226.94,664.53,234.08,647.01,235,644Z M758,707C757.67,707,757.33,707,757,707C756.64,703.69,757.11,700.55,754,699L754,703C756.82,707.76,757.24,717.32,758,723C762.49,740.32,758.93,754.31,757,771C757.83,768.5,758.79,766.33,760,764C760.33,764,760.67,764,761,764C761.33,761.33,761.67,758.67,762,756C762.14,739.13,757.73,723.16,758,707Z M209,771C204.55,748.11,211.66,729.61,211,709C206.45,713.55,205.83,720.91,206,727C205.94,739.49,203.11,760.01,209,771Z M718,729C717.33,726.33,716.67,723.67,716,721L716,729L716,732C721.51,749.03,711.31,771.61,716,787C716,781.51,716.99,776.46,719,772C722.07,765.19,719.07,739.6,719,731L718,729Z M568,841L566,841C560.32,848.18,550.8,854.98,549,864C556.11,857.12,561.64,848.73,568,841Z M482,863L479,860C479.36,862.3,479.68,865.66,482,867C487.94,870.44,546.45,869.09,549,864L546,865C546,865.33,546,865.67,546,866C534.78,866.04,488.52,869.52,482,863Z" fill="#3B261E" stroke="#3B261E" stroke-width="1.2" stroke-linejoin="round"/>
<path id="tone-024" d="M771,336C769.71,333.41,768.72,333.53,766,333C765.91,341.41,765.8,378.07,771,382L779,382L779,381C775.51,381.15,773.6,381.6,771,379C768.37,364.73,766.8,349.47,767,335C768.33,335.33,769.67,335.67,771,336Z M322,781L322,777C316.35,781.36,314,789.14,314,796C314.33,796,314.67,796,315,796C317.44,791.11,320.27,786.19,322,781Z M311,809C311,804.72,313.29,801.28,314,797C304.39,802.58,309.25,818.88,309,828C312.9,829.95,310.1,833.05,314,835C310.15,827.3,310.91,817.38,311,809Z" fill="#7F7672" stroke="#7F7672" stroke-width="1.2" stroke-linejoin="round"/>
<path id="tone-025" d="M780,350C780.67,350.67,781.33,351.33,782,352C783.35,347.94,781.71,335.85,778,334C777.67,334.67,777.33,335.33,777,336L777,338C777.9,341.91,780,346.02,780,350Z M787,375C789.91,369.18,790.31,368.81,789,362C786.58,362,786.65,362.35,785,364C785.69,367.45,787,371.53,787,375Z M641,399C641,397,641,395,641,393C636.05,397.31,637.15,402.85,633,407C632.8,417.65,632.14,423.27,637,433C636.93,429.16,638.64,410.29,638,409C638.77,406.02,639.41,403.02,640,400L641,399ZM638,409L638,409Z M681,401C680.67,401,680.33,401,680,401C678.8,397.39,678.74,396.25,675,395C675.6,399.3,678.2,401.37,678.99,405.1C680.09,410.34,678.27,415.57,680,421C679.67,413.66,682.12,408.94,681,401Z M679,437C679.5,434.44,681.71,428.71,680,427C677.32,432.98,666.36,444.11,666,449C670.75,448.13,670.75,448.13,673,447C675.74,443.8,677.63,441,679,437Z M773,511C773,510.33,773,509.67,773,509C771.69,509.87,770,510.37,770,512L769,513C764.19,516.71,748.59,533,744,533C741.54,537.45,737.86,539.91,735,544C738,543,738,543,740,542C747.18,534.82,768.21,523.7,769,513L770,512L773,511Z M679,578C682.23,573.16,696.08,567.18,702,565C702,564.33,702,563.67,702,563C700.33,563,698.67,563,697,563C693.66,563.56,690.97,564.35,688,566C683.71,570.93,674.45,570.34,677,578L679,578Z M683,817C683,820.98,680.66,822.45,679,826C679.33,826.33,679.67,826.67,680,827C680.67,826.33,681.33,825.67,682,825C682.33,825.33,682.67,825.67,683,826C693.87,815.13,693.34,804.76,696.09,790.79C701.85,761.48,702.89,735.69,701.75,705.64C701.07,687.45,695.77,668.92,696,650C695.33,649.67,694.67,649.33,694,649C692.12,654.84,694.07,666.37,694,673C693.63,692.45,696.12,712.24,696,732C699.5,743.78,695.67,757.16,696,769C696.51,787,689.94,799.89,684,816C683.67,816,683.33,816,683,816L683,817Z M585,833C584.67,834,584.33,835,584,836C585.73,837.73,605.32,832.01,609,831C608,830.67,607,830.33,606,830C606,829.33,606,828.67,606,828C611.13,828.14,615.84,826.88,621,827C620.67,826.67,620.33,826.33,620,826C609.16,825.75,599.48,830,589,830L585,833Z M370,827L362,827C357.56,829.3,348.2,836,344,836C341.58,839.63,338.06,840.73,335,844C340.2,844,376.84,830.47,378,827C375.33,827,372.67,827,370,827Z M448,831C444.71,831,442.47,828.81,438,829C432.39,829.16,426.6,827.65,421,827C422.82,830.64,428.22,830.11,432,830C433.49,832.98,453.02,842,456,842C453.05,839.05,449.89,837.41,446,836C446.33,835.33,446.67,834.67,447,834C448.33,834.33,449.67,834.67,451,835C449,833,449,833,448,831Z M378,835L378,835C370.66,833.33,354.29,839.71,349,845C351.33,845,353.67,845,356,845C356,844,356,843,356,842C358.67,842,361.33,842,364,842C364.33,841,364.67,840,365,839C369.84,839.28,374.43,838.57,378,835Z M597,842L599,842C603.44,839.78,604.5,837.54,610,838C609,837.67,608,837.33,607,837C607.67,836.33,608.33,835.67,609,835C604.55,833.52,592.09,838.23,589,842C591.67,842,594.33,842,597,842Z M547,869C530.33,869,513.67,869,497,869C497,870.02,497,871.01,497,872C507.49,874.27,539.41,876.59,547,869Z M686,888C682.04,886.68,668.78,889.12,663,889C664.89,893.58,666.34,893.59,671,894C671.34,893.32,671.67,892.66,672,892C678.63,892.43,679.43,888.71,686,888Z M441,892C431.51,892.12,422.46,890.85,413,891C409.31,894.54,405.91,894.59,401,895C397.77,898.23,391.33,897.08,387,897C387,898,387,899,387,900C390.59,900.78,392.22,901.78,395,899C398.09,902.09,401.91,902.09,405,899C403,899.33,401,899.67,399,900C398.67,899.33,398.33,898.67,398,898C411.96,893.35,421.89,895.22,436,895C437,897,437,897,438,898C440.78,893.84,443.82,894.24,448,892C445.67,892,443.33,892,441,892Z" fill="#1B0906" stroke="#1B0906" stroke-width="1.2" stroke-linejoin="round"/>
<path id="tone-026" d="M775,347C774.56,342.44,774.15,339.42,771,336C769.67,335.67,768.33,335.33,767,335C766.8,349.47,768.37,364.73,771,379L773,379C771.08,377.08,771.96,369.8,772,367C768.32,363.32,768.93,345.66,769,340C769.67,339.67,770.33,339.33,771,339C772.33,341.67,773.67,344.33,775,347Z M492,384L492,377C484.27,389.38,486.85,412.7,487,427C487.33,427,487.67,427,488,427C487.9,415.33,486.19,395.24,492,385L492,384Z M693,760C693.13,728.72,693.98,672.92,686,644L686,652L686,660C689.21,672.03,691,705.6,691,719C694.26,730.62,692.06,747.76,692,760L693,760Z" fill="#A59A94" stroke="#A59A94" stroke-width="1.2" stroke-linejoin="round"/>
<path id="tone-027" d="M777,364C775.83,359.7,775.44,355.41,775,351C774.33,350,773.67,349,773,348C772.33,348.33,771.67,348.67,771,349C770.89,355.19,772,360.96,772,367L773,367C772.96,364.15,772.09,356.91,774,355C774.42,358.79,774.24,361.24,777,364Z M652,457C652,457.33,652,457.67,652,458C658.41,458.18,668.3,458.05,674,455C679.3,452.17,682.44,445,689,445C689.33,443.67,689.67,442.33,690,441C688.33,442,686.67,443,685,444C685,443.33,685,442.67,685,442C688.43,440.29,687.65,436.65,688,433C685,439,685,439,683,440C682.2,445.93,676.45,453,670,453C665.09,457.91,658.38,457.23,652,457Z M500,468C500,462.94,498.5,454.8,495,451L495,455C495.68,460.25,498.21,462.99,499,468C499.33,468,499.67,468,500,468Z M789,476C789,471.58,792,467.63,792,462C786.65,461.43,781.32,460.79,776,460C779.71,463.71,786.12,462.37,791,464C790.25,469.41,786.57,473.67,785,479L789,476Z M372,705C372.33,705,372.67,705,373,705C374.66,700.01,381.68,695.61,384,689C384.33,690,384.67,691,385,692C386.77,686.68,390.71,686.41,390,680C389,680.67,388,681.33,387,682C386.67,681.67,386.33,681.33,386,681C383.47,683.53,382.63,686.85,381,690C380.67,690,380.33,690,380,690C377.95,692.05,373.91,701,372,701L372,705Z M366,724C369,722,369,722,370,719C369,718.67,368,718.33,367,718C369.17,713.66,371.19,709.86,372,705C368.6,708.4,365.04,714.61,363,719L363,723C364.21,724.21,364.26,724,366,724Z M326,780C332.14,775.91,336.73,766.6,338,759L336,760C334.96,763.11,333.04,764.89,332,768C331.67,768,331.33,768,331,768C330.19,770.44,326,778.69,326,780Z M684,799C684,794.19,686.2,790.29,686,785C684.39,787.72,682,796.4,682,799C681.3,804.11,678,809.14,678,814C682.32,810.62,682.22,803.99,684,799Z" fill="#E7DFD5" stroke="#E7DFD5" stroke-width="1.2" stroke-linejoin="round"/>
<path id="tone-028" d="M739,386C739.45,376.2,729.84,353.71,721,350C723.16,356.49,729.11,360.66,731.66,366.18C733.99,371.24,736.1,380.16,738,386C738.33,386,738.67,386,739,386Z" fill="#867D79" stroke="#867D79" stroke-width="1.2" stroke-linejoin="round"/>
<path id="tone-029" d="M773,367C773,370.33,773,373.67,773,377C774.67,377,776.33,377,778,377C779.52,373.95,777.46,367.43,777,364C774.24,361.24,774.42,358.79,774,355C772.09,356.91,772.96,364.15,773,367Z" fill="#F6F2ED" stroke="#F6F2ED" stroke-width="1.2" stroke-linejoin="round"/>
<path id="tone-030" d="M492,384C495.78,378.32,500.23,362.76,501,356C498.99,358.56,497.37,361.05,496,364C496.27,370.11,494.54,371.73,492,377L492,384Z M795,465C794.67,463.33,794.33,461.67,794,460C787.07,460.12,781.73,459.31,775,458L776,460C781.32,460.79,786.65,461.43,792,462C792,467.63,789,471.58,789,476C792.53,472.63,794.21,469.84,795,465Z M785,486C785,481.79,787.71,479.87,789,476L785,479C778.78,484.68,775.37,494.63,769,501C759.54,513.94,748.94,523.06,738,534L739,534C753.19,524.54,762.71,510.68,775,499C775,497.13,782.89,487.05,785,486Z M677,593L675,590C676.46,606,682,624.49,682,640C684.33,643.63,684.16,646.77,684,651C684.67,651.33,685.33,651.67,686,652L686,644C686,638.27,684.89,632.86,685,627C684.67,627,684.33,627,684,627C684.39,616.96,679.94,605.52,679,595L677,593Z M692,760C692.06,747.76,694.26,730.62,691,719C691,727,691,735,691,743C690.67,743,690.33,743,690,743C690.13,756.64,689.84,771.83,686,785C686.2,790.29,684,794.19,684,799C685.13,797.87,685.13,797.87,687,794C688.13,792.88,688.13,792.88,689,788C691.65,779.06,692.21,769.42,692,760Z" fill="#C5B9AE" stroke="#C5B9AE" stroke-width="1.2" stroke-linejoin="round"/>
<path id="tone-031" d="M784,370C784,365.74,781.99,361.7,780,358L780,362L780,366C782.84,370.74,785.41,378.86,779,381L779,382C787.03,380.39,784.97,376.39,784,370Z M675,829C677.25,826.75,677.25,826.75,678,822C668.54,831.94,656.21,823,644,823C647.66,823.95,651.61,824.3,655,826C661.73,826.66,668.37,829,675,829Z M464,838L462,838C466.96,844.77,479,851.73,479,860L482,863C480.88,860.75,480.88,860.75,480,854C478.47,849.88,468.08,839.36,464,838Z" fill="#675243" stroke="#675243" stroke-width="1.2" stroke-linejoin="round"/>
<path id="tone-032" d="M492,377C494.54,371.73,496.27,370.11,496,364L494,365C479.45,379.55,482.11,460.87,498,474L498,470C493.34,456.01,487.74,445.4,488,430L488,427C487.67,427,487.33,427,487,427C486.85,412.7,484.27,389.38,492,377Z" fill="#827A77" stroke="#827A77" stroke-width="1.2" stroke-linejoin="round"/>
<path id="tone-033" d="M779,381C785.41,378.86,782.84,370.74,780,366C781,373.43,781,373.43,782,377C778.87,378.86,776.63,379.2,773,379L771,379C773.6,381.6,775.51,381.15,779,381Z M681,393C678.26,387.52,673.23,384.85,670,380C663.24,377.75,647.74,372.51,643,382L649,381C657.95,380.78,666.22,380.7,674,386C676.81,387.91,677.58,391.29,681,393Z M746,412C749.76,408.24,742.46,389.46,739,386L739,390C740.46,392.65,741,393.89,741,397C745.78,400.95,745.11,406.38,745,412L746,412Z M447,827C438.82,827,429.24,820.83,419,821C432.49,824.5,443.57,827.2,456,833C457.71,834.63,458.93,835.87,460,838L462,838L464,838C462.93,835.87,461.71,834.63,460,833L460,832C455.11,831.13,452.08,827.71,447,827Z" fill="#9F9288" stroke="#9F9288" stroke-width="1.2" stroke-linejoin="round"/>
<path id="tone-034" d="M845,411C845,389.08,823.48,385.74,814,372C813.8,375.73,816,377.8,816,380C821.09,385.09,829.69,387.66,835.6,394.16C840.33,399.37,840.48,406.48,845,411Z M713,847L708,845C711.09,848.09,716.98,856.49,720,858C720,860.33,720,862.67,720,865C722.75,865,722.56,865.84,724,868C724,860.18,718.45,852.16,713,847Z" fill="#3C1D0C" stroke="#3C1D0C" stroke-width="1.2" stroke-linejoin="round"/>
<path id="tone-035" d="M637,394C637,390.59,644.65,384.6,648,384C648.33,383,648.67,382,649,381L643,382C638.32,387.75,632.06,390.95,633,399C634.07,396.87,635.29,395.63,637,394Z M683,436C683.33,436,683.67,436,684,436C685.67,425.96,690.73,415.13,685,405C685.1,415.96,684.45,425.2,683,436Z M746,412L745,412C744.8,421.15,744.82,429.65,749,438C751.5,439.25,753.06,441,755,443L753,437C750.6,432.2,747.63,433.97,748,427C747.33,426.67,746.67,426.33,746,426C746,421.33,746,416.67,746,412Z M769,509C769,505.47,773.71,502.87,775,499C762.71,510.68,753.19,524.54,739,534L738,536C739.18,536,742.28,533.57,744,533C748.87,525.7,761.76,514.98,769,509Z M389,667L388,667C386.14,670.6,384.86,674.39,383,678C382.67,678,382.33,678,382,678C381.12,679.54,379.73,683,378,683L378,687C379.33,685.67,380.67,684.33,382,683C384.95,680.05,388.52,671.26,389,667Z M693,760L692,760C692.21,769.42,691.65,779.06,689,788L691,785C691,777.54,693.15,768.51,693,760Z M547,860C546.33,861.33,545.67,862.67,545,864C532.33,864.04,495.31,868.11,485.37,862.8C481.78,860.88,482.92,856.92,480,854C480.88,860.75,480.88,860.75,482,863C488.52,869.52,534.78,866.04,546,866C546,865.67,546,865.33,546,865C547.12,863.88,547.12,863.88,549,859L547,860Z" fill="#7D6A5E" stroke="#7D6A5E" stroke-width="1.2" stroke-linejoin="round"/>
<path id="tone-036" d="M633,399C632.06,390.95,638.32,387.75,643,382C629.15,386.62,620.79,413.33,628,426C627.81,416.65,626.51,406.67,633,399Z M745,412C745.11,406.38,745.78,400.95,741,397C744.78,408.35,744.17,417.05,744,429C744.44,433.9,744.63,435.46,749,438C744.82,429.65,744.8,421.15,745,412Z M347,830L343,830C340.33,831.33,337.67,832.67,335,834C320.11,847.59,332.67,839,320,839C326.28,850.83,332.05,837.98,338,836C338,834.03,345.02,830.95,347,830Z" fill="#BDB7AF" stroke="#BDB7AF" stroke-width="1.2" stroke-linejoin="round"/>
<path id="tone-037" d="M739,390C737.67,387.33,736.33,384.67,735,382C735.82,389.07,738.58,395.92,740,403C741,403.33,742,403.67,743,404C743,412.33,743,420.67,743,429C743.33,429,743.67,429,744,429C744.17,417.05,744.78,408.35,741,397C741,393.89,740.46,392.65,739,390Z M476,555C481.56,546.67,491.97,540.3,499,533C488.37,536.54,470.19,557.49,462,566C458.03,569.14,440,586.06,440,590C441.15,590,453.27,576.17,456,574C460.6,567.69,469.72,559.97,476,555Z M415,819C410.17,815.78,386.08,814.92,382,819L386,819L415,819Z M673,824C668.34,823.62,664.17,823.35,660,821C646.06,818.78,631.09,816,616.88,817.87C610.76,818.67,603.76,822.82,597.64,823.03C595.53,823.11,590,823.04,590,826C598.47,826,608.58,820.15,617.91,819.87C630.29,819.5,666.96,825.84,673,824Z" fill="#D7CFC5" stroke="#D7CFC5" stroke-width="1.2" stroke-linejoin="round"/>
<path id="tone-038" d="M811,401C811,388.04,777.88,396.5,774,397L773,399C779.73,395.63,794.87,391.87,801,398C804.72,398.51,807.73,399.12,811,401Z M778,445C791.99,445.24,811.73,445.82,817,430C812.24,432.58,808.78,436.22,805,440C798.64,445.85,783.79,445.43,776,443L778,445Z M607,841L605,841L599,842L597,842C591.45,844.88,583.86,846.79,578.88,850.38C567.03,858.95,553.42,882.75,578,884C575.69,882.46,569.18,879.3,568,877C561.16,863.64,589.32,845.21,600,844L602,844C603.13,842.87,603.13,842.87,607,841Z M441,892C447.5,889.83,457.62,887.06,462.5,882.45C471.44,874.01,463.2,856.4,453,853C454.05,854.28,461,861.56,461,863C477.63,896.27,421.81,884.59,409,891L413,891C422.46,890.85,431.51,892.12,441,892Z M613,890C623.19,893,681.76,887.44,690,883C675.58,884.45,661.27,884.73,647,887C640.85,890.71,619.1,890.68,613,887L591,887C598.19,889.17,605.54,887.51,613,890Z" fill="#592A15" stroke="#592A15" stroke-width="1.2" stroke-linejoin="round"/>
<path id="tone-039" d="M801,398C794.87,391.87,779.73,395.63,773,399C758.39,416.95,763,411.29,763,432C768.51,436.78,773.67,439.78,781,441L779,439L778,438C772.16,438,765.48,432.91,765,427C760.85,422.85,763.71,416.15,765,411C765,409.21,767.5,407.65,768.63,406.18C777.59,394.56,787.86,396.46,801,398Z M817,430C820.04,424.71,819.63,418.74,818,413C818.22,420.22,817.4,429.3,810,433C802.5,441.33,791.29,441.15,781,441C781,441.33,781,441.67,781,442C789.63,442.1,796.55,441.34,805,440C808.78,436.22,812.24,432.58,817,430Z M657,845C653.99,841.99,649.73,842.07,646,840C633.78,838.45,616.67,836.89,606,844C616.27,841.34,636.54,837.41,646,843L649,844L657,845Z M444,848C436.37,848,427.42,839.65,417,840C419.49,841.2,421.68,842.45,424,844C431.56,844.73,436.53,850,444,850L444,848Z M583,855C583,854.67,583,854.33,583,854C588.8,852.07,594.99,847.68,600,844C589.32,845.21,561.16,863.64,568,877C569.18,879.3,575.69,882.46,578,884L586,884C581.82,880.3,576.34,881.26,573,877L572,875C571.67,875,571.33,875,571,875C571.28,863.56,574.16,861.99,583,855Z M655,883L651,883C644.1,887.24,629.1,886.08,621,886C621,885.67,621,885.33,621,885C617.89,885,615.89,884.83,613,884L586,884C594.82,886.47,603.94,886.1,613,886C613,886.33,613,886.67,613,887C619.1,890.68,640.85,890.71,647,887C649.67,885.67,652.33,884.33,655,883Z" fill="#AE6B3F" stroke="#AE6B3F" stroke-width="1.2" stroke-linejoin="round"/>
<path id="tone-040" d="M773,399L774,397C768.26,398.64,759,407.96,759,414C758.81,420.88,757.7,426.7,763,432C763,411.29,758.39,416.95,773,399Z M411,838C406.58,833.58,392.21,836.22,386,837C377.36,839.42,372.15,840.19,364,844C380.8,839.48,393.52,837.86,411,838Z M428,839C422.59,839,417.58,837.91,412,838L413,840L417,840C427.42,839.65,436.37,848,444,848L450,850C447.03,844.06,434.16,841.64,428,839Z" fill="#673119" stroke="#673119" stroke-width="1.2" stroke-linejoin="round"/>
<path id="tone-041" d="M809,404C809,399.91,802.75,401.5,801,398C787.86,396.46,777.59,394.56,768.63,406.18C767.5,407.65,765,409.21,765,411C785.2,395.99,783.92,396.02,809,404Z M781,441C791.29,441.15,802.5,441.33,810,433C797.93,437.02,792.54,439.23,779,439L781,441Z M417,840L413,840C402.35,839.92,385.05,837.96,376,844C392.44,844.55,406.48,841.64,424,844C421.68,842.45,419.49,841.2,417,840Z M646,843C636.54,837.41,616.27,841.34,606,844L602,844L600,844C594.99,847.68,588.8,852.07,583,854C583,854.33,583,854.67,583,855C587.74,854.05,591.18,850.7,595.98,849.21C613.11,843.91,627.97,842.66,646,843Z M682,855L676,853C678.4,857.8,684.6,862,690,862C687.62,859.62,683.24,857.47,682,855Z M339,863L340,861C337.12,862.29,335.13,863.66,333,866C332.1,870.65,330.49,874.3,332,879L334,879C333.76,871.89,334.57,868.63,339,863Z M597,882C587.5,882.37,582.04,878.04,573,877C576.34,881.26,581.82,880.3,586,884L613,884C613,883.67,613,883.33,613,883C607.75,883.07,602.08,883.56,597,882Z M373,886C358.24,890.22,348.34,885.45,335,881C345.64,893.22,363.64,884.95,377,889C377,888.67,377,888.33,377,888C375.67,887.33,374.33,886.67,373,886Z M377,891C387.21,891.1,446.32,887.41,452,884C439.28,885.71,428.27,884.33,416.11,885.08C402.64,885.91,391.16,889.16,377,889L377,891Z" fill="#D98C54" stroke="#D98C54" stroke-width="1.2" stroke-linejoin="round"/>
<path id="tone-042" d="M811,401C807.73,399.12,804.72,398.51,801,398C802.75,401.5,809,399.91,809,404C818.95,413.95,815.51,421.97,810,433C817.4,429.3,818.22,420.22,818,413C817.67,413,817.33,413,817,413C816.57,409.29,816.57,409.29,811,403L811,401Z M334,879L332,879C336.32,891.95,362.1,890.09,373,890C373,890.33,373,890.67,373,891L377,891L377,889C363.64,884.95,345.64,893.22,335,881L334,879Z M461,863C456.62,858.62,449.91,851.86,444,850C444.46,852.82,453.77,860.65,457.06,863.19C469.28,872.61,455.2,877.6,452,884C446.32,887.41,387.21,891.1,377,891C387.51,894.02,398.52,891,409,891C421.81,884.59,477.63,896.27,461,863Z" fill="#BA7443" stroke="#BA7443" stroke-width="1.2" stroke-linejoin="round"/>
<path id="tone-043" d="M810,433C815.51,421.97,818.95,413.95,809,404C783.92,396.02,785.2,395.99,765,411C763.71,416.15,760.85,422.85,765,427C764.74,421.93,763.55,417.51,768,414C767.61,425.36,769.49,433.78,783,433C781.35,434.65,781,434.58,781,437C782.67,437,784.33,437,786,437C783.11,437.83,781.11,438,778,438L779,439C792.54,439.23,797.93,437.02,810,433Z M621,885C621,884.33,621,883.67,621,883C617.81,882.5,616.37,882.37,614,880C613.67,880.67,613.33,881.33,613,882C607.67,882,602.33,882,597,882C602.08,883.56,607.75,883.07,613,883C613,883.33,613,883.67,613,884C615.89,884.83,617.89,885,621,885Z" fill="#F59E5B" stroke="#F59E5B" stroke-width="1.2" stroke-linejoin="round"/>
<path id="tone-044" d="M817,430C823.81,430,823.93,407.31,811,403C816.57,409.29,816.57,409.29,817,413C817.33,413,817.67,413,818,413C819.63,418.74,820.04,424.71,817,430Z M586,884L578,884C581.88,885.88,581.88,885.88,583,887L591,887L613,887C613,886.67,613,886.33,613,886C603.94,886.1,594.82,886.47,586,884Z M373,891C360.11,891.18,351.36,890.06,339,888C341.36,890.36,342.78,890.49,346,891C346,891.33,346,891.67,346,892C363.16,891.77,394.42,899.04,409,891C398.52,891,387.51,894.02,377,891L373,891Z" fill="#6E3A1F" stroke="#6E3A1F" stroke-width="1.2" stroke-linejoin="round"/>
<path id="tone-045" d="M763,432C757.7,426.7,758.81,420.88,759,414C755.16,420.58,755.15,430.86,763,434L763,432Z M641,837C641,836.67,641,836.33,641,836C635.33,836,629.67,836,624,836C618.96,835.72,609.17,838.22,605,841L607,841C619.14,837.97,628.51,836.88,641,837Z M674,848C668.34,842.34,661.96,839.6,654,840C656.45,842.18,670.8,848,674,848Z M362,846L364,844C345.38,846.96,324.49,858.39,326,880C327.33,880,328.67,880,330,880C327.73,875.47,329.18,869.2,333,866C333,858.39,355.29,847.12,362,846Z M698,876C699,876,700,876,701,876C702.92,868.32,700.67,862.56,693,860C698.85,865.56,698.7,868.15,698,876Z M413,891L409,891C394.42,899.04,363.16,891.77,346,892C350.99,896.99,392.15,895,401,895C405.91,894.59,409.31,894.54,413,891Z" fill="#481D0D" stroke="#481D0D" stroke-width="1.2" stroke-linejoin="round"/>
<path id="tone-046" d="M778,438C781.11,438,783.11,437.83,786,437C784.33,437,782.67,437,781,437C781,434.58,781.35,434.65,783,433C769.49,433.78,767.61,425.36,768,414C763.55,417.51,764.74,421.93,765,427C765.48,432.91,772.16,438,778,438Z M586,859L586,859C584.67,859.33,583.33,859.67,582,860C583,858.67,584,857.33,585,856C577.44,858.52,572.49,867.6,572,875L573,877C582.04,878.04,587.5,882.37,597,882C602.33,882,607.67,882,613,882C613.33,881.33,613.67,880.67,614,880C616.37,882.37,617.81,882.5,621,883C621,883.67,621,884.33,621,885C629.69,885.16,642.3,886.7,649,880C633.54,880,585.3,881.63,576,871C579.69,867.31,582.93,863.21,586,859Z M373,886C373,885.33,373,884.67,373,884C375.67,884,378.33,884,381,884C374.61,879.74,317.58,888.81,343,866C341,864,341,864,339,863C334.57,868.63,333.76,871.89,334,879L335,881C348.34,885.45,358.24,890.22,373,886Z M690,878C694.41,875.9,695.68,875.04,695,870C694,870,693,870,692,870C690.01,874.98,686.96,875.94,682,877C682,877.67,682,878.33,682,879C684.62,878.62,687.36,878,690,878Z" fill="#F5A869" stroke="#F5A869" stroke-width="1.2" stroke-linejoin="round"/>
<path id="tone-047" d="M633,435C631.59,432.36,630.63,429.93,630,427C629.41,439.93,637.93,444.06,645,453C651.5,455.51,661.99,457.01,668,453C661.45,454.88,653.83,454.88,648,451C638.57,447.86,638.91,440.91,633,435Z M679,585C667.72,572.74,680.18,571.82,686,566C677.76,567.37,671.42,570.75,674,580C676.42,584.35,677,588.04,677,593L679,595L681,597C680.16,593.02,679.55,589.03,679,585Z M344,747L345,744C341.28,745.86,331,759.93,331,764L336,760C337.25,754.17,339.66,751.11,344,747Z M691,791L691,785L689,788C688.13,792.88,688.13,792.88,687,794C685.87,802.25,682,810.29,679,818C678.67,818,678.33,818,678,818L678,822C680.43,820.79,681.08,818.92,683,817L683,816C685.62,807.96,689.62,799.27,691,791Z" fill="#6B584E" stroke="#6B584E" stroke-width="1.2" stroke-linejoin="round"/>
<path id="tone-048" d="M781,441C773.67,439.78,768.51,436.78,763,432L763,434L767,438C769.94,439.52,772.92,440.8,776,442C776,442.33,776,442.67,776,443C783.79,445.43,798.64,445.85,805,440C796.55,441.34,789.63,442.1,781,442C781,441.67,781,441.33,781,441Z M650,840C650,839.67,650,839.33,650,839C646.37,839.2,644.13,838.86,641,837C628.51,836.88,619.14,837.97,607,841C603.13,842.87,603.13,842.87,602,844L606,844C616.67,836.89,633.78,838.45,646,840L650,840Z M450,850L444,848L444,850C449.91,851.86,456.62,858.62,461,863C461,861.56,454.05,854.28,453,853L450,850Z" fill="#7F4425" stroke="#7F4425" stroke-width="1.2" stroke-linejoin="round"/>
<path id="tone-049" d="M827,464C826.77,457.98,828.19,455.42,830,450C827.71,450.81,826.14,451.24,825.5,453.77C815.12,495.18,800.26,506.53,775,539L779,537C784.04,530.13,791.13,523.04,798,518C798,516.45,812.33,494.84,814,494C819.49,487.51,825.85,472.45,827,464Z" fill="#361A0B" stroke="#361A0B" stroke-width="1.2" stroke-linejoin="round"/>
<path id="tone-050" d="M797,459C795.15,458.07,763.56,450.85,762,451C763.61,454.23,771.13,458,775,458C781.73,459.31,787.07,460.12,794,460C794.33,461.67,794.67,463.33,795,465C795.67,465,796.33,465,797,465C797,463,797,461,797,459Z M686,566C686,565.67,686,565.33,686,565C691.43,564.25,694.25,561.21,699,559C691.63,559.82,682.75,564.5,676,568C673.17,571.01,668.84,577.42,674,580C671.42,570.75,677.76,567.37,686,566Z M678,822L678,818C675.78,820.22,675.74,822.63,673,824C666.96,825.84,630.29,819.5,617.91,819.87C608.58,820.15,598.47,826,590,826C583.36,829.43,576.66,832.55,570,836C564.83,837.72,547,854.69,547,860L549,859C554.12,853.88,558.67,843.44,566,841L568,841C571,836.5,583.65,830.59,589,830C589,829.67,589,829.33,589,829C608.23,825.79,623.36,818.34,644,823C656.21,823,668.54,831.94,678,822Z M415,819L386,819C379.48,820.83,372.61,821.29,366,823C359.83,824.49,352.67,827.17,347,830C345.02,830.95,338,834.03,338,836L340,836L342,836C344.12,831.76,357.08,827.47,362,827C370.48,822.76,380.41,821.73,390,822C390,821.67,390,821.33,390,821C399,821,408,821,417,821L417,819L415,819Z" fill="#9A897D" stroke="#9A897D" stroke-width="1.2" stroke-linejoin="round"/>
<path id="tone-051" d="M315,482C311.25,478.9,307.41,468.83,305,464L306,472C308.46,476.91,311.75,481.18,314,486C314.33,486,314.67,486,315,486L315,482Z M731,544C732.75,540.5,736.28,540.31,738,536C731.67,538.11,718.73,549.27,714,554C715.33,554.33,716.67,554.67,718,555C717.33,556,716.67,557,716,558C719.71,558,725.75,545.75,731,544Z M704,624C703.33,621.33,702.67,618.67,702,616C701.89,624.24,701.67,634.13,704,642C704.63,649.04,704.66,657.66,710,663L710,655L708,652C704.32,646.48,703.8,630.96,704,624Z M705,595C703.32,589.97,699.42,584.94,694,587C694.8,589.4,698.4,597.4,700,599C700,596.84,700.45,595.08,701,593C702.33,593.67,703.67,594.33,705,595Z M722,619C716.46,616.23,712.31,600.31,707,595L707,599C709.59,601.59,710.41,604.83,712,608C715.98,612.89,717.34,618.34,722,623L722,619Z M249,621C250,619,250,619,251,616C243.84,622.7,241.94,633.66,235,640L235,642L235,644C235.33,644,235.67,644,236,644C237.37,641.05,238.99,638.56,241,636C243.54,630.92,246.55,626.1,249,621Z M731,634C728.72,634,724.24,625.24,722,623C722.8,627.77,724.39,634.46,729,636C729.95,644.34,735.57,650.62,739,658L739,654C735.65,647.3,733.4,641.2,731,634Z M717,696C714.39,688.16,715.64,672.64,710,667C711.83,685.22,716.29,702.55,716,721C716.67,723.67,717.33,726.33,718,729C718.17,718.72,716.9,708.46,717,698L717,696Z M754,695C753.67,695,753.33,695,753,695C752.1,688.4,750.49,676.66,745,673L745,677C750.21,682.21,750.55,695.82,753,703C753.33,703,753.67,703,754,703L754,699L754,695Z M352,693C353.15,689.56,354.86,686.43,356,683C352.41,686.26,350.65,690.6,347,694C346.37,696.93,345.41,699.36,344,702C349,697,349,697,350,696C350,694.45,350.95,694.05,352,693Z M372,701C372,696.19,376.4,691.8,378,687C370.73,694.02,370.12,700.77,366,709C368.5,706.5,369.5,703.5,372,701Z M344,836C348.2,836,357.56,829.3,362,827C357.08,827.47,344.12,831.76,342,836L344,836Z M757,771C758.93,754.31,762.49,740.32,758,723C757.83,732.95,760.04,742.72,759.24,752.77C758.6,760.9,754.74,770.88,753,779C755.25,776.75,755.25,776.75,757,771Z M723,820C713.71,810.71,710.9,818.63,705,824L705,825C703.39,836.91,697,834,708,845L713,847C713,834.65,698.5,844.31,708,826C712.61,817.13,712.83,818.76,723,820Z M290,818L288,818C289.81,824.32,296.15,827.82,300,833C303.11,834.04,302.96,833.89,304,837C305.33,837,306.67,837,308,837C312.75,837.88,312.75,837.88,315,839L315,837C308.38,834.73,290.57,825.71,290,818Z M655,826C651.61,824.3,647.66,823.95,644,823C623.36,818.34,608.23,825.79,589,829C589,829.33,589,829.67,589,830C599.48,830,609.16,825.75,620,826C629.83,822.96,641.78,826.16,652,826L655,826Z" fill="#46332B" stroke="#46332B" stroke-width="1.2" stroke-linejoin="round"/>
<path id="tone-052" d="M509,485C509,478.28,503.68,476.37,503,469C502,468.67,501,468.33,500,468C502,473.75,502,473.75,502,476C504.76,478.76,506.04,482.04,509,485Z M506,529C511.12,529,522.69,520.32,526,516L522,517L520,518C515.53,522.78,509.73,523.4,506,529Z M712,551C714.59,551,719.15,545.91,721,544C715.81,545.53,706.48,549.97,703,554C705.97,552.35,708.66,551.56,712,551Z M691,719C691,705.6,689.21,672.03,686,660L686,668C685.68,693.57,690.24,717.38,690,743C690.33,743,690.67,743,691,743C691,735,691,727,691,719Z M318,835C318.31,827.04,313.82,822.42,313.73,815.09C313.66,809.06,317.41,805.07,317,798L316,799C314.58,807.53,311.02,814.29,312.99,823.53C313.89,827.77,316.45,830.15,317,835C317.33,835,317.67,835,318,835Z M347,830C352.67,827.17,359.83,824.49,366,823C359.2,822.77,351.83,826.94,346,825C346,824.33,346,823.67,346,823C343.46,825.1,342.39,826,339,826C340.33,826.67,341.67,827.33,343,828C343,828.67,343,829.33,343,830L347,830Z M570,836L571,834C561.72,837.26,548.11,851.68,545,861L547,860C547,854.69,564.83,837.72,570,836Z" fill="#E1DAD1" stroke="#E1DAD1" stroke-width="1.2" stroke-linejoin="round"/>
<path id="tone-053" d="M798,518C804.09,512.23,811.35,501.96,814,494C812.33,494.84,798,516.45,798,518Z M770,548C773.76,548,796.53,522.4,798,518C791.13,523.04,784.04,530.13,779,537C778.15,539.54,772.43,545.57,770,548Z M290,856L288,856C291.45,859.82,297.61,861.27,300.36,864.71C304.09,869.38,301,878,304,884C303.89,877.2,305.11,870.77,305,864C300.43,861.71,293.54,859.54,290,856Z M546,891L546,889C525.67,889,505.33,889,485,889C484.67,890,484.33,891,484,892C500.01,888.54,529.83,888.13,546,891Z" fill="#452716" stroke="#452716" stroke-width="1.2" stroke-linejoin="round"/>
<path id="tone-054" d="M522,517C522,516.67,522,516.33,522,516C523.67,515.33,525.33,514.67,527,514C526.14,507.49,517.29,500.19,512,496C513.74,501.21,523.44,505.67,524,510C524.69,515.4,516.46,516.56,513.35,518.04C483.96,531.98,427.47,590.48,417,621L419,620C427.4,611.6,429.44,598.26,440,590C440,586.06,458.03,569.14,462,566C462,557.14,510.46,521.18,520,518L522,517Z" fill="#877E79" stroke="#877E79" stroke-width="1.2" stroke-linejoin="round"/>
<path id="tone-055" d="M705,559L707,556C702.67,555.72,701.54,555.2,699,559C694.25,561.21,691.43,564.25,686,565C686,565.33,686,565.67,686,566L688,566C690.97,564.35,693.66,563.56,697,563C699.67,561.67,702.33,560.33,705,559Z M419,821L417,821C408,821,399,821,390,821C390,821.33,390,821.67,390,822C398.67,822,407.33,822,416,822C416,822.33,416,822.67,416,823C420.18,822.77,429.57,824.72,433,827C434.67,827.33,436.33,827.67,438,828C438,828.33,438,828.67,438,829C442.47,828.81,444.71,831,448,831C453.75,833,453.75,833,456,833C443.57,827.2,432.49,824.5,419,821Z" fill="#645044" stroke="#645044" stroke-width="1.2" stroke-linejoin="round"/>
<path id="tone-056" d="M688,566L686,566C680.18,571.82,667.72,572.74,679,585C682.25,587.44,685.28,608.72,686,614C685.62,622.3,688.3,637.91,691,646C692.68,644.32,695.78,644.95,698,645C698.4,642.78,698.36,640.64,700,639C700.33,640.33,700.67,641.67,701,643C701.33,642,701.67,641,702,640C702.67,640.67,703.33,641.33,704,642C701.67,634.13,701.89,624.24,702,616C702,610.52,700.5,604.57,700,599C698.4,597.4,694.8,589.4,694,587C699.42,584.94,703.32,589.97,705,595L707,595C706.25,591.26,704.16,589.49,703,586C698.58,580.52,685.69,582.83,679,583C678.33,581.33,677.67,579.67,677,578C674.45,570.34,683.71,570.93,688,566Z" fill="#392B25" stroke="#392B25" stroke-width="1.2" stroke-linejoin="round"/>
<path id="tone-057" d="M722,623C717.34,618.34,715.98,612.89,712,608C708.97,606.48,707.65,602.41,705,600C702.48,607.56,707,623.36,707,632C706.9,638.84,708,645.34,708,652L710,655C712.01,658.74,713,661.74,713,666C720.51,679.51,721.27,709.54,721,725C723.14,741.59,724.88,770.13,720,786C725.6,790.74,730.95,791.24,738,791L740,790C772.26,766.35,748.59,708.12,745,677L745,673C744.67,673,744.33,673,744,673C742.4,667.98,739.87,663.2,739,658C735.57,650.62,729.95,644.34,729,636C724.39,634.46,722.8,627.77,722,623Z" fill="#635C5B" stroke="#635C5B" stroke-width="1.2" stroke-linejoin="round"/>
<path id="tone-058" d="M686,614C685,612,684,610,683,608C683.89,614.61,685.11,620.26,685,627C684.89,632.86,686,638.27,686,644C693.98,672.92,693.13,728.72,693,760C693.67,760,694.33,760,695,760C695,750.67,695,741.33,695,732C695.26,703.01,690.79,674.98,691,646C688.3,637.91,685.62,622.3,686,614Z" fill="#64544A" stroke="#64544A" stroke-width="1.2" stroke-linejoin="round"/>
<path id="tone-059" d="M407,640C407.96,634.63,412.89,628.44,415,623C412.06,623.98,392,656.94,392,661C393.93,658.98,395.63,657.58,398,656C401.07,649.85,401.45,645.19,407,640Z" fill="#817974" stroke="#817974" stroke-width="1.2" stroke-linejoin="round"/>
<path id="tone-060" d="M382,674C388.98,670.51,388.07,638.16,388,630C383.76,630.67,381.99,631.02,380,635C376.72,643.9,370.28,655.08,365,663C362.17,668.45,356,677.29,356,683C357.86,679.27,361.09,673.91,364,671C366.53,668.47,370.29,659.67,372,656C374.12,649.5,381.03,639.6,382,634C383.67,633.67,385.33,633.33,387,633C387.11,642.48,385.82,651.62,386,661C385.33,661.33,384.67,661.67,384,662C384.18,666.57,382,670.43,382,674Z" fill="#3E2920" stroke="#3E2920" stroke-width="1.2" stroke-linejoin="round"/>
<path id="tone-061" d="M353,736L354,732C349.26,735.27,346.95,738.6,345,744L344,747C347.61,744.59,349.57,740.26,353,737L353,736Z" fill="#847871" stroke="#847871" stroke-width="1.2" stroke-linejoin="round"/>
<path id="tone-062" d="M272,842C272,837.66,266.43,832.72,263.97,829.36C261.81,826.4,258.13,816.79,256,815C252.86,812.35,225.8,816.16,220,816C228.97,821.52,249.94,815.23,256,820C261.09,824.01,266.11,836.27,272,842Z" fill="#33180B" stroke="#33180B" stroke-width="1.2" stroke-linejoin="round"/>
<path id="tone-063" d="M428,839C425.9,836.9,422.56,837.56,420,835C423.2,835.09,425.93,834.91,429,834C418.14,834,395.04,831.44,386,837C392.21,836.22,406.58,833.58,411,838L412,838C417.58,837.91,422.59,839,428,839Z M654,840C654,839.67,654,839.33,654,839C643.26,836.91,635.7,832.25,624,836C629.67,836,635.33,836,641,836C641,836.33,641,836.67,641,837C644.13,838.86,646.37,839.2,650,839C650,839.33,650,839.67,650,840L654,840Z M591,887L583,887C591.71,891.73,603.35,890.1,613,890C605.54,887.51,598.19,889.17,591,887Z" fill="#3E190A" stroke="#3E190A" stroke-width="1.2" stroke-linejoin="round"/>
<path id="tone-064" d="M545,861C545,861.33,545,861.67,545,862C533.9,862.07,496.36,866.01,488.05,861.78C484.47,859.96,486.63,857.27,485,855C481.57,850.22,465.48,833.72,460,833C461.71,834.63,462.93,835.87,464,838C468.08,839.36,478.47,849.88,480,854C482.92,856.92,481.78,860.88,485.37,862.8C495.31,868.11,532.33,864.04,545,864C545.67,862.67,546.33,861.33,547,860L545,861Z" fill="#C3B8AE" stroke="#C3B8AE" stroke-width="1.2" stroke-linejoin="round"/>
<path id="tone-065" d="M412,838L411,838C393.52,837.86,380.8,839.48,364,844L362,846L368,846C370.25,844.88,370.25,844.88,376,844C385.05,837.96,402.35,839.92,413,840L412,838Z" fill="#A65F36" stroke="#A65F36" stroke-width="1.2" stroke-linejoin="round"/>
<path id="tone-066" d="M650,840L646,840C649.73,842.07,653.99,841.99,657,845C663.65,844.71,669.35,848.84,676,851L674,848C670.8,848,656.45,842.18,654,840L650,840Z M341,859C344.05,852.89,352.97,855.1,355,849C358.22,848.49,359.64,848.36,362,846C355.29,847.12,333,858.39,333,866C335.13,863.66,337.12,862.29,340,861L341,859Z M693,860C688.16,857.81,687.76,855.74,682,855C683.24,857.47,687.62,859.62,690,862L692,864C700.85,871.52,697.63,873.37,691,880C693.93,879.02,695.61,877.89,698,876C698.7,868.15,698.85,865.56,693,860Z M690,883L691,881C678.58,882.67,667.58,883.09,655,883C652.33,884.33,649.67,885.67,647,887C661.27,884.73,675.58,884.45,690,883Z" fill="#945530" stroke="#945530" stroke-width="1.2" stroke-linejoin="round"/>
<path id="tone-067" d="M424,844C406.48,841.64,392.44,844.55,376,844C370.25,844.88,370.25,844.88,368,846C362.17,849.02,346.37,859,341,859L340,861L339,863C341,864,341,864,343,866C317.58,888.81,374.61,879.74,381,884C378.33,884,375.67,884,373,884C373,884.67,373,885.33,373,886C374.33,886.67,375.67,887.33,377,888C377,888.33,377,888.67,377,889C391.16,889.16,402.64,885.91,416.11,885.08C428.27,884.33,439.28,885.71,452,884C455.2,877.6,469.28,872.61,457.06,863.19C453.77,860.65,444.46,852.82,444,850C436.53,850,431.56,844.73,424,844Z" fill="#F7A061" stroke="#F7A061" stroke-width="1.2" stroke-linejoin="round"/>
<path id="tone-068" d="M649,844L646,843C627.97,842.66,613.11,843.91,595.98,849.21C591.18,850.7,587.74,854.05,583,855C574.16,861.99,571.28,863.56,571,875C571.33,875,571.67,875,572,875C572.49,867.6,577.44,858.52,585,856C584,857.33,583,858.67,582,860C583.33,859.67,584.67,859.33,586,859C582.93,863.21,579.69,867.31,576,871C585.3,881.63,633.54,880,649,880C642.3,886.7,629.69,885.16,621,885C621,885.33,621,885.67,621,886C629.1,886.08,644.1,887.24,651,883C658.73,875.27,678.99,884.77,690,878C687.36,878,684.62,878.62,682,879C682,878.33,682,877.67,682,877C686.96,875.94,690.01,874.98,692,870C693,870,694,870,695,870C695,868.82,692.57,865.72,692,864L690,862C684.6,862,678.4,857.8,676,853C667.18,849.57,657.17,848.4,649,844ZM586,859L586,859Z" fill="#F8A060" stroke="#F8A060" stroke-width="1.2" stroke-linejoin="round"/>
<path id="tone-069" d="M657,845L649,844C657.17,848.4,667.18,849.57,676,853L682,855C682,854.33,682,853.67,682,853C680,852.33,678,851.67,676,851C669.35,848.84,663.65,844.71,657,845Z M368,846L362,846C359.64,848.36,358.22,848.49,355,849C352.97,855.1,344.05,852.89,341,859C346.37,859,362.17,849.02,368,846Z M691,880C697.63,873.37,700.85,871.52,692,864C692.57,865.72,695,868.82,695,870C695.68,875.04,694.41,875.9,690,878C678.99,884.77,658.73,875.27,651,883L655,883C667.58,883.09,678.58,882.67,691,881L691,880Z" fill="#CF834F" stroke="#CF834F" stroke-width="1.2" stroke-linejoin="round"/>
<path id="tone-070" d="M332,879C330.49,874.3,332.1,870.65,333,866C329.18,869.2,327.73,875.47,330,880C330.64,881.92,337.02,888,339,888C351.36,890.06,360.11,891.18,373,891C373,890.67,373,890.33,373,890C362.1,890.09,336.32,891.95,332,879Z" fill="#8A4E2C" stroke="#8A4E2C" stroke-width="1.2" stroke-linejoin="round"/>
<path id="tone-071" d="M546,891C576.14,921.98,717.94,926.74,725,875C717.91,882.09,717.58,892.33,708,899C702.34,902.94,690.26,902.89,683.8,904C663.69,907.45,637,913.21,615.81,910.95C612.08,910.55,608.28,907.44,603.71,907.03C591.92,905.96,579.72,906.4,568.2,903C557.97,899.97,555.14,893.1,546,889L546,891Z" fill="#381A0B" stroke="#381A0B" stroke-width="1.2" stroke-linejoin="round"/></g></svg>